<svg class="navbar-brand-item" style="height: 48px" xmlns="http://www.w3.org/2000/svg" xmlns:xlink="http://www.w3.org/1999/xlink" id="uuid-165a51fb-fa3a-43cb-8e4e-5a26f1fa1be8" viewBox="0 0 141.96 50"><defs><clipPath id="uuid-7e55f7eb-8c9b-4748-b4a2-ef1cd37e9ce3"><rect y="0" width="141.96" height="50" style="fill:none;"></rect></clipPath><clipPath id="uuid-029de260-35df-48d6-9583-b203f64beee9"><rect y="0" width="141.96" height="50" style="fill:none;"></rect></clipPath></defs><g id="uuid-c2f1835b-d2b0-4fc8-b86b-eade7d309b87"><g id="uuid-213053ea-2bf6-438a-a17e-9e153c485c66"><g style="clip-path:url(#uuid-7e55f7eb-8c9b-4748-b4a2-ef1cd37e9ce3);"><polygon points="52.33 0 44.52 16.61 36.7 0 29.68 0 29.68 0 43.63 29.68 45.39 29.68 59.35 0 52.33 0"></polygon><polygon points="134.94 0 127.12 16.61 122.82 7.47 119.31 0 115.79 7.47 111.5 16.61 103.68 0 96.66 0 96.66 0 110.61 29.68 112.37 29.68 119.31 14.93 126.24 29.68 128 29.68 141.96 0 134.94 0"></polygon><g style="clip-path:url(#uuid-029de260-35df-48d6-9583-b203f64beee9);"><path d="m92.84,14.84C92.84,6.64,86.2,0,78.01,0s-14.84,6.64-14.84,14.84,6.64,14.84,14.84,14.84,14.84-6.64,14.84-14.84m-14.84,8.48c-4.69,0-8.48-3.8-8.48-8.48s3.8-8.48,8.48-8.48,8.48,3.8,8.48,8.48-3.8,8.48-8.48,8.48"></path><path d="m13.96,0L0,29.68h7.02l1.33-2.82h12.98l1.33,2.82h7.02S15.72,0,15.72,0h-1.76Zm-3.22,21.77l4.1-8.71,4.1,8.71h-8.19Z"></path><path d="m33.56,41.95c-.73,0-1.3.19-1.71.58-.41.39-.62.96-.62,1.72v3.55c0,.51.11.92.34,1.24.22.32.51.56.86.7.35.14.73.21,1.12.21.63,0,1.17-.17,1.62-.52.45-.35.68-.89.68-1.64v-3.54c0-.72-.2-1.28-.6-1.7-.4-.41-.96-.62-1.69-.62m1.08,5.62c0,.35-.1.62-.29.84-.19.21-.46.32-.81.32-.37,0-.65-.1-.83-.3-.18-.2-.27-.48-.27-.83v-2.94c0-.32.03-.57.08-.77.05-.19.16-.35.32-.46.16-.11.4-.17.7-.17s.54.06.71.17c.16.11.27.27.32.47.05.2.08.45.08.76v2.91Z"></path><polygon points="45.21 41.95 43.95 41.95 43.95 49.95 48.08 49.95 48.08 48.8 45.21 48.8 45.21 41.95"></polygon><path d="m59.65,47.29c0,.52-.08.89-.23,1.13-.16.23-.46.35-.92.35s-.75-.12-.91-.35c-.16-.23-.23-.61-.23-1.13v-5.39h-1.26v5.89c0,.77.24,1.33.71,1.68.47.35,1.04.53,1.7.53s1.23-.18,1.7-.53c.47-.35.7-.91.7-1.68v-5.89h-1.26v5.39Z"></path><polygon points="68.68 43.22 70.33 43.22 70.33 49.95 71.59 49.95 71.59 43.22 73.28 43.22 73.28 41.95 68.68 41.95 68.68 43.22"></polygon><rect x="82.83" y="41.95" width="1.26" height="8.01"></rect><path d="m95.97,41.93c-.73,0-1.3.2-1.72.59-.42.39-.63.97-.63,1.73v3.56c0,.51.11.93.34,1.25.23.32.51.56.87.7.35.14.73.22,1.13.22.63,0,1.18-.18,1.63-.53.45-.35.68-.9.68-1.64v-3.55c0-.72-.2-1.29-.6-1.7-.4-.41-.97-.62-1.7-.62m1.08,5.64c0,.35-.1.63-.29.84-.2.21-.47.32-.81.32-.38,0-.65-.1-.84-.3-.18-.2-.27-.48-.27-.84v-2.95c0-.32.03-.57.08-.77.05-.2.16-.35.32-.46.16-.11.4-.17.71-.17s.55.06.71.17c.16.11.27.27.32.47.05.2.08.45.08.76v2.92Z"></path><polygon points="109.97 47.32 106.87 41.95 105.61 41.95 105.61 49.95 106.87 49.95 106.87 44.54 109.97 49.95 111.24 49.95 111.24 41.95 109.97 41.95 109.97 47.32"></polygon><path d="m21.27,41.98h-.44c-1.16,0-2.09.94-2.09,2.09v.22c0,.55.28,1.06.75,1.36l2.3,1.46c.23.15.37.4.37.68h0c0,.54-.43.98-.96.98h-.27c-.53,0-.97-.43-.97-.97h-1.21v.08c0,1.16.94,2.09,2.09,2.09h.44c1.16,0,2.09-.94,2.09-2.09v-.22c0-.55-.28-1.06-.75-1.36l-2.3-1.46c-.23-.15-.37-.4-.37-.68h0c0-.54.43-.98.97-.98h.27c.53,0,.97.43.97.97h1.21v-.08c0-1.16-.94-2.09-2.09-2.09"></path><path d="m121.13,41.98h-.44c-1.16,0-2.09.94-2.09,2.09v.22c0,.55.28,1.06.75,1.36l2.3,1.46c.23.15.37.4.37.68h0c0,.54-.43.98-.96.98h-.27c-.53,0-.97-.43-.97-.97h-1.21v.08c0,1.16.94,2.09,2.09,2.09h.44c1.16,0,2.09-.94,2.09-2.09v-.22c0-.55-.28-1.06-.75-1.36l-2.3-1.46c-.23-.15-.37-.4-.37-.68h0c0-.54.43-.98.97-.98h.27c.53,0,.97.43.97.97h1.21v-.08c0-1.16-.94-2.09-2.09-2.09"></path><polygon points="119.31 0 115.79 7.47 112.28 0 112.28 0 119.31 0" style="fill:#00bdff;"></polygon></g></g></g></g></svg>