<svg xmlns="http://www.w3.org/2000/svg"  viewBox="0 0 100 100" width="100px" height="100px"><path fill="#c7ede6" d="M87.215,56.71C88.35,54.555,89,52.105,89,49.5c0-6.621-4.159-12.257-10.001-14.478 C78.999,35.015,79,35.008,79,35c0-11.598-9.402-21-21-21c-9.784,0-17.981,6.701-20.313,15.757C36.211,29.272,34.638,29,33,29 c-7.692,0-14.023,5.793-14.89,13.252C12.906,43.353,9,47.969,9,53.5C9,59.851,14.149,65,20.5,65c0.177,0,0.352-0.012,0.526-0.022 C21.022,65.153,21,65.324,21,65.5C21,76.822,30.178,86,41.5,86c6.437,0,12.175-2.972,15.934-7.614C59.612,80.611,62.64,82,66,82 c4.65,0,8.674-2.65,10.666-6.518C77.718,75.817,78.837,76,80,76c6.075,0,11-4.925,11-11C91,61.689,89.53,58.727,87.215,56.71z"/><path fill="#fdfcef" d="M60.5,44.5V45h-3v-0.5c0,0-4.242,0-5.5,0c-2.485,0-4.5-2.015-4.5-4.5 c0-2.333,1.782-4.229,4.055-4.455C51.533,35.364,51.5,35.187,51.5,35c0-2.485,2.015-4.5,4.5-4.5c1.438,0,2.703,0.686,3.527,1.736 C59.667,29.6,61.829,27.5,64.5,27.5c2.761,0,5,2.239,5,5c0,0.446-0.077,0.87-0.187,1.282c0.642-0.777,1.6-1.282,2.687-1.282 c1.781,0,3.234,1.335,3.455,3.055C75.636,35.533,75.813,35.5,76,35.5c2.485,0,4.5,2.015,4.5,4.5s-2.015,4.5-4.5,4.5s-9.5,0-9.5,0 H60.5z"/><path fill="#472b29" d="M64.5,27c3.033,0,5.5,2.467,5.5,5.5c0,0.016,0,0.031,0,0.047C70.602,32.192,71.29,32,72,32 c1.831,0,3.411,1.261,3.858,3.005C75.905,35.002,75.952,35,76,35c2.757,0,5,2.243,5,5s-2.243,5-5,5H60.5 c-0.276,0-0.5-0.224-0.5-0.5s0.224-0.5,0.5-0.5H76c2.206,0,4-1.794,4-4s-1.794-4-4-4c-0.117,0-0.23,0.017-0.343,0.032 l-0.141,0.019c-0.021,0.003-0.041,0.004-0.062,0.004c-0.246,0-0.462-0.185-0.495-0.437C74.768,34.125,73.496,33,72,33 c-0.885,0-1.723,0.401-2.301,1.1c-0.098,0.118-0.241,0.182-0.386,0.182c-0.078,0-0.156-0.018-0.228-0.056 c-0.209-0.107-0.314-0.346-0.254-0.573C68.946,33.218,69,32.852,69,32.5c0-2.481-2.019-4.5-4.5-4.5 c-2.381,0-4.347,1.872-4.474,4.263c-0.011,0.208-0.15,0.387-0.349,0.45c-0.05,0.016-0.101,0.024-0.152,0.024 c-0.15,0-0.296-0.069-0.392-0.192C58.362,31.563,57.221,31,56,31c-2.206,0-4,1.794-4,4c0,0.117,0.017,0.23,0.032,0.343 l0.019,0.141c0.016,0.134-0.022,0.268-0.106,0.373c-0.084,0.105-0.207,0.172-0.34,0.185C49.549,36.247,48,37.949,48,40 c0,2.206,1.794,4,4,4h5.5c0.276,0,0.5,0.224,0.5,0.5S57.776,45,57.5,45H52c-2.757,0-5-2.243-5-5c0-2.397,1.689-4.413,4.003-4.877 C51.001,35.082,51,35.041,51,35c0-2.757,2.243-5,5-5c1.176,0,2.293,0.416,3.183,1.164C59.781,28.76,61.945,27,64.5,27L64.5,27z"/><path fill="#472b29" d="M66 34c1.403 0 2.609.999 2.913 2.341C69.28 36.119 69.699 36 70.125 36c1.202 0 2.198.897 2.353 2.068C72.681 38.022 72.874 38 73.063 38c1.529 0 2.811 1.2 2.918 2.732C75.99 40.87 75.886 40.99 75.749 41c-.006 0-.012 0-.018 0-.13 0-.24-.101-.249-.232-.089-1.271-1.151-2.268-2.419-2.268-.229 0-.47.042-.738.127-.022.007-.045.01-.067.01-.055 0-.11-.02-.156-.054C72.038 38.537 72 38.455 72 38.375c0-1.034-.841-1.875-1.875-1.875-.447 0-.885.168-1.231.473-.047.041-.106.063-.165.063-.032 0-.063-.006-.093-.019-.088-.035-.148-.117-.155-.212C68.377 35.512 67.288 34.5 66 34.5c-.208 0-.425.034-.682.107-.023.007-.047.01-.07.01-.109 0-.207-.073-.239-.182-.038-.133.039-.271.172-.309C65.483 34.04 65.744 34 66 34L66 34zM52.117 35.5c1.326 0 2.508.897 2.874 2.182.038.133-.039.271-.172.309C54.795 37.997 54.772 38 54.75 38c-.109 0-.209-.072-.24-.182C54.205 36.748 53.221 36 52.117 36c-.117 0-.23.014-.342.029-.012.002-.023.003-.035.003-.121 0-.229-.092-.246-.217-.019-.137.077-.263.214-.281C51.842 35.516 51.978 35.5 52.117 35.5L52.117 35.5z"/><path fill="#fff" d="M17.5 48h-10C7.224 48 7 47.776 7 47.5S7.224 47 7.5 47h10c.276 0 .5.224.5.5S17.777 48 17.5 48zM20.5 48h-1c-.276 0-.5-.224-.5-.5s.224-.5.5-.5h1c.276 0 .5.224.5.5S20.777 48 20.5 48zM25.491 50H16.5c-.276 0-.5-.224-.5-.5s.224-.5.5-.5h8.991c.276 0 .5.224.5.5S25.767 50 25.491 50zM14.5 50h-1c-.276 0-.5-.224-.5-.5s.224-.5.5-.5h1c.276 0 .5.224.5.5S14.777 50 14.5 50zM11.5 50h-2C9.224 50 9 49.776 9 49.5S9.224 49 9.5 49h2c.276 0 .5.224.5.5S11.777 50 11.5 50zM17.5 52h-2c-.276 0-.5-.224-.5-.5s.224-.5.5-.5h2c.276 0 .5.224.5.5S17.776 52 17.5 52zM20.5 43c-.177 0-.823 0-1 0-.276 0-.5.224-.5.5 0 .276.224.5.5.5.177 0 .823 0 1 0 .276 0 .5-.224.5-.5C21 43.224 20.776 43 20.5 43zM20.5 45c-.177 0-4.823 0-5 0-.276 0-.5.224-.5.5 0 .276.224.5.5.5.177 0 4.823 0 5 0 .276 0 .5-.224.5-.5C21 45.224 20.776 45 20.5 45zM25.5 47c-.177 0-2.823 0-3 0-.276 0-.5.224-.5.5 0 .276.224.5.5.5.177 0 2.823 0 3 0 .276 0 .5-.224.5-.5C26 47.224 25.776 47 25.5 47z"/><g><path fill="#fff" d="M85.5 69h-10c-.276 0-.5-.224-.5-.5s.224-.5.5-.5h10c.276 0 .5.224.5.5S85.776 69 85.5 69zM89.5 69h-2c-.276 0-.5-.224-.5-.5s.224-.5.5-.5h2c.276 0 .5.224.5.5S89.776 69 89.5 69zM94.5 71h-10c-.276 0-.5-.224-.5-.5s.224-.5.5-.5h10c.276 0 .5.224.5.5S94.777 71 94.5 71zM82.5 71h-1c-.276 0-.5-.224-.5-.5s.224-.5.5-.5h1c.276 0 .5.224.5.5S82.776 71 82.5 71zM79.47 71H77.5c-.276 0-.5-.224-.5-.5s.224-.5.5-.5h1.97c.276 0 .5.224.5.5S79.746 71 79.47 71zM88.5 67h-5c-.276 0-.5-.224-.5-.5s.224-.5.5-.5h5c.276 0 .5.224.5.5S88.777 67 88.5 67zM85.5 73h-2c-.276 0-.5-.224-.5-.5s.224-.5.5-.5h2c.276 0 .5.224.5.5S85.776 73 85.5 73z"/></g><g><path fill="#fdfcef" d="M35.5,70.5c0,0,1.567,0,3.5,0s3.5-1.567,3.5-3.5c0-1.781-1.335-3.234-3.055-3.455 C39.473,63.366,39.5,63.187,39.5,63c0-1.933-1.567-3.5-3.5-3.5c-1.032,0-1.95,0.455-2.59,1.165 c-0.384-1.808-1.987-3.165-3.91-3.165c-2.209,0-4,1.791-4,4c0,0.191,0.03,0.374,0.056,0.558C25.128,61.714,24.592,61.5,24,61.5 c-1.228,0-2.245,0.887-2.455,2.055C21.366,63.527,21.187,63.5,21,63.5c-1.933,0-3.5,1.567-3.5,3.5s1.567,3.5,3.5,3.5s7.5,0,7.5,0 V71h7V70.5z"/><path fill="#472b29" d="M37.25 66C37.112 66 37 65.888 37 65.75c0-1.223.995-2.218 2.218-2.218.034.009.737-.001 1.244.136.133.036.212.173.176.306-.036.134-.173.213-.306.176-.444-.12-1.1-.12-1.113-.118-.948 0-1.719.771-1.719 1.718C37.5 65.888 37.388 66 37.25 66zM30.5 70A.5.5 0 1 0 30.5 71 .5.5 0 1 0 30.5 70z"/><path fill="#472b29" d="M39,71h-3.5c-0.276,0-0.5-0.224-0.5-0.5s0.224-0.5,0.5-0.5H39c1.654,0,3-1.346,3-3 c0-1.496-1.125-2.768-2.618-2.959c-0.134-0.018-0.255-0.088-0.336-0.196s-0.115-0.244-0.094-0.377C38.975,63.314,39,63.16,39,63 c0-1.654-1.346-3-3-3c-0.85,0-1.638,0.355-2.219,1c-0.125,0.139-0.321,0.198-0.5,0.148c-0.182-0.049-0.321-0.195-0.36-0.379 C32.58,59.165,31.141,58,29.5,58c-1.93,0-3.5,1.57-3.5,3.5c0,0.143,0.021,0.28,0.041,0.418c0.029,0.203-0.063,0.438-0.242,0.54 c-0.179,0.102-0.396,0.118-0.556-0.01C24.878,62.155,24.449,62,24,62c-0.966,0-1.792,0.691-1.963,1.644 c-0.048,0.267-0.296,0.446-0.569,0.405C21.314,64.025,21.16,64,21,64c-1.654,0-3,1.346-3,3s1.346,3,3,3h7.5 c0.276,0,0.5,0.224,0.5,0.5S28.776,71,28.5,71H21c-2.206,0-4-1.794-4-4s1.794-4,4-4c0.059,0,0.116,0.002,0.174,0.006 C21.588,61.82,22.711,61,24,61c0.349,0,0.689,0.061,1.011,0.18C25.176,58.847,27.126,57,29.5,57c1.831,0,3.466,1.127,4.153,2.774 C34.333,59.276,35.155,59,36,59c2.206,0,4,1.794,4,4c0,0.048-0.001,0.095-0.004,0.142C41.739,63.59,43,65.169,43,67 C43,69.206,41.206,71,39,71z"/><path fill="#472b29" d="M33.5,70c-0.159,0-0.841,0-1,0c-0.276,0-0.5,0.224-0.5,0.5c0,0.276,0.224,0.5,0.5,0.5 c0.159,0,0.841,0,1,0c0.276,0,0.5-0.224,0.5-0.5C34,70.224,33.776,70,33.5,70z"/></g><g><path fill="#28b3ea" d="M38.245,79.33c-1.224,0-2.545-0.974-2.545-2.547V35.188c0-1.573,1.321-2.547,2.545-2.547 c0.423,0,0.833,0.107,1.217,0.317l38.007,20.798c0.827,0.452,1.321,1.286,1.321,2.229s-0.494,1.777-1.321,2.229L39.462,79.013 C39.078,79.223,38.668,79.33,38.245,79.33L38.245,79.33z"/><path fill="#52e895" d="M36.75 32.994L39 32.828 67.334 48.221 59.667 55.71z"/><path fill="#f9e65c" d="M78.584 54.462L67.334 48.221 59.667 55.71 67.417 63.448 78.168 57.79z"/><path fill="#f15b6c" d="M36.417 78.592L59.667 55.71 67.417 63.448 38.417 79.341z"/><path fill="#472b29" d="M38.245,33.341c0.305,0,0.601,0.078,0.881,0.23L77.132,54.37c0.6,0.328,0.958,0.932,0.958,1.616 c0,0.684-0.358,1.288-0.958,1.616L39.126,78.399c-0.28,0.153-0.576,0.23-0.881,0.23c-0.888,0-1.845-0.706-1.845-1.846V35.188 C36.4,34.047,37.358,33.341,38.245,33.341 M38.245,31.941C36.549,31.941,35,33.3,35,35.188v41.596 c0,1.887,1.549,3.246,3.245,3.246c0.517,0,1.048-0.126,1.553-0.402L77.804,58.83c2.247-1.23,2.247-4.458,0-5.688L39.798,32.344 C39.293,32.067,38.762,31.941,38.245,31.941L38.245,31.941z"/><path fill="#472b29" d="M67.688 63.906c-.063 0-.127-.024-.176-.072L51.195 47.675c-.099-.098-.099-.256-.002-.354.098-.099.256-.099.354-.002l16.317 16.159c.099.098.099.256.002.354C67.817 63.882 67.753 63.906 67.688 63.906zM49.426 45.82c-.063 0-.127-.024-.176-.072l-3.39-3.356c-.099-.098-.099-.256-.002-.354.097-.099.255-.099.354-.002l3.39 3.356c.099.098.099.256.002.354C49.555 45.796 49.49 45.82 49.426 45.82zM44.688 41.128c-.063 0-.127-.024-.176-.072l-7.625-7.551c-.099-.098-.099-.256-.002-.354.098-.1.256-.098.354-.002l7.625 7.551c.099.098.099.256.002.354C44.816 41.104 44.752 41.128 44.688 41.128zM36.75 78.384c-.064 0-.13-.025-.179-.075-.097-.099-.095-.257.004-.354l8.452-8.285c.099-.097.257-.095.354.004s.095.257-.004.354l-8.452 8.285C36.876 78.36 36.813 78.384 36.75 78.384z"/><path fill="#472b29" d="M47.222,68.119c-0.064,0-0.13-0.025-0.179-0.075c-0.097-0.099-0.095-0.257,0.004-0.354 l20.342-19.939c0.099-0.097,0.257-0.095,0.354,0.004s0.095,0.257-0.004,0.354L47.396,68.048 C47.348,68.096,47.285,68.119,47.222,68.119z"/></g></svg>