<?xml version="1.0" encoding="UTF-8"?>
<svg version="1.1" xmlns="http://www.w3.org/2000/svg" width="110" height="118">
<path d="M0 0 C36.3 0 72.6 0 110 0 C110 38.94 110 77.88 110 118 C73.7 118 37.4 118 0 118 C0 79.06 0 40.12 0 0 Z " fill="#E5F3FD" transform="translate(0,0)"/>
<path d="M0 0 C19.8 0 39.6 0 60 0 C60 38.94 60 77.88 60 118 C23.7 118 -12.6 118 -50 118 C-50 116.02 -50 114.04 -50 112 C-17.99 112 14.02 112 47 112 C46.21394717 100.066678 46.21394717 100.066678 41.875 90.0625 C37.93473565 82.88700187 37.93473565 82.88700187 38.2578125 78.49609375 C38.50273438 77.67238281 38.74765625 76.84867187 39 76 C37.02 75.505 37.02 75.505 35 75 C35.33 73.35 35.66 71.7 36 70 C37.98 70 39.96 70 42 70 C42.33 67.36 42.66 64.72 43 62 C41.02 61.34 39.04 60.68 37 60 C37 58.68 37 57.36 37 56 C38.98 55.67 40.96 55.34 43 55 C42.505 51.04 42.505 51.04 42 47 C40.02 47 38.04 47 36 47 C35.67 46.01 35.34 45.02 35 44 C35.66 43.01 36.32 42.02 37 41 C37.66 41 38.32 41 39 41 C38.505 40.05125 38.01 39.1025 37.5 38.125 C36 35 36 35 36 33 C33.69 33.66 31.38 34.32 29 35 C29 34.34 29 33.68 29 33 C28.34 33 27.68 33 27 33 C27.350625 32.4225 27.70125 31.845 28.0625 31.25 C29.14822022 29.07900995 29.14822022 29.07900995 28.9375 26.875 C28.10763912 24.78773968 28.10763912 24.78773968 25.75 23.6875 C22.7385388 22.9346347 20.95547533 23.15557848 18 24 C17.4465236 21.92446352 17 20.15634036 17 18 C14.69 17.34 12.38 16.68 10 16 C9.34 16.66 8.68 17.32 8 18 C6.66180502 15.3773768 5.3292849 12.75213401 4 10.125 C3.42765625 9.00544922 3.42765625 9.00544922 2.84375 7.86328125 C2.30234375 6.79013672 2.30234375 6.79013672 1.75 5.6953125 C1.41484375 5.03547363 1.0796875 4.37563477 0.734375 3.69580078 C0 2 0 2 0 0 Z " fill="#FCFDFE" transform="translate(50,0)"/>
<path d="M0 0 C15.84 0 31.68 0 48 0 C46.51102715 4.46691855 45.13068235 7.85400102 42.875 11.875 C42.33617187 12.84179688 41.79734375 13.80859375 41.2421875 14.8046875 C40.83226562 15.52914063 40.42234375 16.25359375 40 17 C39.40703125 16.82597656 38.8140625 16.65195312 38.203125 16.47265625 C35.28053182 15.84564601 32.90174242 16.40646178 30 17 C30.33 19.31 30.66 21.62 31 24 C29.02 24.99 29.02 24.99 27 26 C26.01 25.01 25.02 24.02 24 23 C23.38125 23.309375 22.7625 23.61875 22.125 23.9375 C20.75 24.625 19.375 25.3125 18 26 C17.67 26.99 17.34 27.98 17 29 C17.66 29 18.32 29 19 29 C19.33 30.32 19.66 31.64 20 33 C18.68 33.66 17.36 34.32 16 35 C16.639375 35.2475 17.27875 35.495 17.9375 35.75 C20 37 20 37 20.75 39.125 C20.87375 40.053125 20.87375 40.053125 21 41 C19.68 41.66 18.36 42.32 17 43 C17 44.65 17 46.3 17 48 C16.01 48.495 16.01 48.495 15 49 C16.32 49 17.64 49 19 49 C19.02578125 50.12277344 19.0515625 51.24554688 19.078125 52.40234375 C19.51524899 65.53513274 21.64488283 73.35582022 31 83 C31.66 82.01 32.32 81.02 33 80 C36.1875 79.63671875 36.1875 79.63671875 40 79.6875 C41.8871875 79.69330078 41.8871875 79.69330078 43.8125 79.69921875 C47 80 47 80 49 82 C49.33 81.67 49.66 81.34 50 81 C52.30993382 80.87442838 54.62418536 80.82424271 56.9375 80.8125 C58.20464844 80.79832031 59.47179688 80.78414063 60.77734375 80.76953125 C64 81 64 81 66 83 C66.556875 82.2265625 66.556875 82.2265625 67.125 81.4375 C69 80 69 80 72 80.375 C73.485 80.684375 73.485 80.684375 75 81 C75.99 80.67 76.98 80.34 78 80 C78.33 77.03 78.66 74.06 79 71 C80.65 70.67 82.3 70.34 84 70 C83.9071875 71.175625 83.9071875 71.175625 83.8125 72.375 C83.874375 73.24125 83.93625 74.1075 84 75 C85.485 75.99 85.485 75.99 87 77 C86.67 78.65 86.34 80.3 86 82 C83 83 83 83 80.8125 82.0625 C80.214375 81.711875 79.61625 81.36125 79 81 C76.70113419 83.6915506 76.70113419 83.6915506 77.375 86 C77.684375 86.99 77.684375 86.99 78 88 C78 88.99 78 89.98 78 91 C76 92.6875 76 92.6875 74 94 C72.515 93.01 72.515 93.01 71 92 C71.66 93.65 72.32 95.3 73 97 C68.70868391 97.19619224 64.41693898 97.38048583 60.125 97.5625 C58.29001953 97.64661133 58.29001953 97.64661133 56.41796875 97.73242188 C54.66806641 97.80493164 54.66806641 97.80493164 52.8828125 97.87890625 C51.26463623 97.94960327 51.26463623 97.94960327 49.61376953 98.02172852 C47 98 47 98 45 97 C43.4804236 96.84876169 41.95527498 96.75118307 40.4296875 96.68359375 C39.53378906 96.64169922 38.63789062 96.59980469 37.71484375 96.55664062 C36.77769531 96.51732422 35.84054688 96.47800781 34.875 96.4375 C33.45767578 96.37272461 33.45767578 96.37272461 32.01171875 96.30664062 C29.67462908 96.20040928 27.3374317 96.09836824 25 96 C25.66 94.02 26.32 92.04 27 90 C26.01 91.32 25.02 92.64 24 94 C20.83884224 92.63016497 20.0072908 92.0109362 18 89 C18.99 88.01 18.99 88.01 20 87 C19.63318342 84.06546739 19.13562754 83.13562754 17 81 C14.525 81.99 14.525 81.99 12 83 C10 80 10 80 10.25 77.875 C11 76 11 76 13 75 C12.505 72.03 12.505 72.03 12 69 C10.02 69 8.04 69 6 69 C6 66.69 6 64.38 6 62 C5.34 62 4.68 62 4 62 C4.33 64.64 4.66 67.28 5 70 C6.98 70 8.96 70 11 70 C11.33 71.65 11.66 73.3 12 75 C10.515 75.99 10.515 75.99 9 77 C8.65147844 78.99740928 8.3211624 80.99800954 8 83 C6.87266096 85.52502317 5.72285118 87.93665063 4.4375 90.375 C4.10814453 91.01566406 3.77878906 91.65632813 3.43945312 92.31640625 C2.63360518 93.88138632 1.81781507 95.44124021 1 97 C0.67 97 0.34 97 0 97 C0 64.99 0 32.98 0 0 Z " fill="#FBFDFD" transform="translate(0,0)"/>
<path d="M0 0 C0.74620605 0.00572021 1.49241211 0.01144043 2.26123047 0.01733398 C10.52578914 0.28361451 16.29875248 3.16781133 22.5 8.5625 C27.71642933 14.24865519 30.88181722 21.85520714 31.25 29.5625 C30.53891935 40.67313508 25.44176046 47.86172207 17.6875 55.5 C17.0275 54.84 16.3675 54.18 15.6875 53.5 C12.33005888 53.25622117 12.33005888 53.25622117 8.5625 53.375 C7.28117187 53.39304688 5.99984375 53.41109375 4.6796875 53.4296875 C3.69226562 53.45289063 2.70484375 53.47609375 1.6875 53.5 C1.3575 55.48 1.0275 57.46 0.6875 59.5 C0.3575 59.5 0.0275 59.5 -0.3125 59.5 C-0.6425 56.86 -0.9725 54.22 -1.3125 51.5 C-5.9325 51.5 -10.5525 51.5 -15.3125 51.5 C-15.9725 52.82 -16.6325 54.14 -17.3125 55.5 C-25.66456865 46.955326 -29.36918121 41.93929716 -29.6875 29.9375 C-29.56346331 24.25436419 -29.21409744 20.37053856 -26.3125 15.5 C-25.735 14.489375 -25.1575 13.47875 -24.5625 12.4375 C-18.1123943 4.01652867 -10.60083033 -0.09467167 0 0 Z " fill="#0A448B" transform="translate(48.3125,28.5)"/>
<path d="M0 0 C3 0 3 0 5.0625 2 C5.701875 2.66 6.34125 3.32 7 4 C7.66 4 8.32 4 9 4 C9.33 5.32 9.66 6.64 10 8 C8.02 8.99 8.02 8.99 6 10 C6 11.65 6 13.3 6 15 C5.01 15.495 5.01 15.495 4 16 C5.32 16 6.64 16 8 16 C8.03867187 17.68416016 8.03867187 17.68416016 8.078125 19.40234375 C8.51524899 32.53513274 10.64488283 40.35582022 20 50 C20.66 49.01 21.32 48.02 22 47 C25.1875 46.63671875 25.1875 46.63671875 29 46.6875 C30.8871875 46.69330078 30.8871875 46.69330078 32.8125 46.69921875 C36 47 36 47 38 49 C38.33 48.67 38.66 48.34 39 48 C41.30993382 47.87442838 43.62418536 47.82424271 45.9375 47.8125 C47.20464844 47.79832031 48.47179688 47.78414062 49.77734375 47.76953125 C53 48 53 48 55 50 C55.37125 49.484375 55.7425 48.96875 56.125 48.4375 C58 47 58 47 61 47.375 C61.99 47.58125 62.98 47.7875 64 48 C64.99 47.67 65.98 47.34 67 47 C67.33 44.03 67.66 41.06 68 38 C69.65 37.67 71.3 37.34 73 37 C72.938125 37.78375 72.87625 38.5675 72.8125 39.375 C72.874375 40.24125 72.93625 41.1075 73 42 C74.485 42.99 74.485 42.99 76 44 C75.67 45.65 75.34 47.3 75 49 C72 50 72 50 69.8125 49.0625 C69.214375 48.711875 68.61625 48.36125 68 48 C65.70113419 50.6915506 65.70113419 50.6915506 66.375 53 C66.684375 53.99 66.684375 53.99 67 55 C67 55.99 67 56.98 67 58 C65 59.6875 65 59.6875 63 61 C61.515 60.01 61.515 60.01 60 59 C60.99 61.475 60.99 61.475 62 64 C57.70868391 64.19619224 53.41693898 64.38048583 49.125 64.5625 C47.29001953 64.64661133 47.29001953 64.64661133 45.41796875 64.73242188 C43.66806641 64.80493164 43.66806641 64.80493164 41.8828125 64.87890625 C40.26463623 64.94960327 40.26463623 64.94960327 38.61376953 65.02172852 C36 65 36 65 34 64 C32.4804236 63.84876169 30.95527498 63.75118307 29.4296875 63.68359375 C28.08583984 63.62075195 28.08583984 63.62075195 26.71484375 63.55664062 C25.77769531 63.51732422 24.84054688 63.47800781 23.875 63.4375 C22.45767578 63.37272461 22.45767578 63.37272461 21.01171875 63.30664062 C18.67462908 63.20040928 16.3374317 63.09836824 14 63 C14.66 61.02 15.32 59.04 16 57 C15.01 58.32 14.02 59.64 13 61 C9.83884224 59.63016497 9.0072908 59.0109362 7 56 C7.66 55.34 8.32 54.68 9 54 C8.63318342 51.06546739 8.13562754 50.13562754 6 48 C4.35 48.66 2.7 49.32 1 50 C-1 47 -1 47 -0.75 44.875 C0 43 0 43 2 42 C1.67 40.02 1.34 38.04 1 36 C-0.98 36 -2.96 36 -5 36 C-5.33 32.7 -5.66 29.4 -6 26 C-5.01 26 -4.02 26 -3 26 C-3 25.34 -3 24.68 -3 24 C-4.32 23.34 -5.64 22.68 -7 22 C-6.67 19.36 -6.34 16.72 -6 14 C-3.69 14 -1.38 14 1 14 C1 12.68 1 11.36 1 10 C0.01 10 -0.98 10 -2 10 C-3.03023161 6.72199032 -3.17153978 5.38596452 -1.75 2.1875 C-1.1725 1.465625 -0.595 0.74375 0 0 Z " fill="#EAF2F6" transform="translate(11,33)"/>
<path d="M0 0 C2.64 0 5.28 0 8 0 C8 0.66 8 1.32 8 2 C7.34 2 6.68 2 6 2 C6.33 5.96 6.66 9.92 7 14 C11.29 14 15.58 14 20 14 C20 11.69 20 9.38 20 7 C26.27 7 32.54 7 39 7 C40.16346154 15.14423077 40.16346154 15.14423077 39 18 C38.34 18.66 37.68 19.32 37 20 C35.68 20 34.36 20 33 20 C33.01160156 20.99902344 33.02320313 21.99804688 33.03515625 23.02734375 C33.04417969 24.31769531 33.05320313 25.60804687 33.0625 26.9375 C33.07410156 28.22527344 33.08570313 29.51304688 33.09765625 30.83984375 C33 34 33 34 32 35 C30.00041636 35.04080783 27.99954746 35.04254356 26 35 C26 35.66 26 36.32 26 37 C28.31 37.33 30.62 37.66 33 38 C32.67 38.99 32.34 39.98 32 41 C22.43 41 12.86 41 3 41 C3 37.37 3 33.74 3 30 C-0.96 30 -4.92 30 -9 30 C-7.26563929 25.66409823 -5.66266856 23.04482771 -2.9375 19.375 C1.04074451 13.57669064 2.21969143 8.97520297 2 2 C1.34 2 0.68 2 0 2 C0 1.34 0 0.68 0 0 Z " fill="#D4E5EC" transform="translate(31,36)"/>
<path d="M0 0 C6.06891692 -0.0493933 12.13771713 -0.08571643 18.20678711 -0.10986328 C20.271912 -0.11992835 22.33702263 -0.13358154 24.40209961 -0.15087891 C27.36836264 -0.17510493 30.33443744 -0.18647797 33.30078125 -0.1953125 C34.2258699 -0.20563507 35.15095856 -0.21595764 36.1040802 -0.22659302 C36.96474594 -0.22674408 37.82541168 -0.22689514 38.7121582 -0.22705078 C39.46938675 -0.231492 40.2266153 -0.23593323 41.00679016 -0.24050903 C43 0 43 0 46 2 C49.31086259 1.71725862 49.31086259 1.71725862 52 0 C53.35094982 -0.09268999 54.70667091 -0.11747326 56.06079102 -0.11352539 C56.92160782 -0.11344986 57.78242462 -0.11337433 58.66932678 -0.11329651 C59.60473801 -0.10813522 60.54014923 -0.10297394 61.50390625 -0.09765625 C62.45692123 -0.0962413 63.40993622 -0.09482635 64.39183044 -0.09336853 C67.44875165 -0.08775152 70.50560077 -0.07519616 73.5625 -0.0625 C75.62955624 -0.05748719 77.69661362 -0.05292391 79.76367188 -0.04882812 C84.84247588 -0.03777656 89.9212257 -0.02050055 95 0 C95 3.96 95 7.92 95 12 C63.65 12 32.3 12 0 12 C0 8.04 0 4.08 0 0 Z " fill="#E4F2F7" transform="translate(1,99)"/>
<path d="M0 0 C1.5 1.3125 1.5 1.3125 3 3 C3 6 3 6 1.5 7.5625 C1.005 8.036875 0.51 8.51125 0 9 C0 9.66 0 10.32 0 11 C0.969375 11.12375 1.93875 11.2475 2.9375 11.375 C3.948125 11.58125 4.95875 11.7875 6 12 C7.35439668 14.70879335 7.06501451 17.00933268 7 20 C5.02 20.33 3.04 20.66 1 21 C1.11306697 22.95894361 1.11306697 22.95894361 2 25 C4.49034386 26.29660434 4.49034386 26.29660434 7 27 C7.125 32.75 7.125 32.75 6 35 C2.9375 35.625 2.9375 35.625 0 36 C-0.33 37.32 -0.66 38.64 -1 40 C0.98 40.495 0.98 40.495 3 41 C2.9175 41.82371094 2.835 42.64742187 2.75 43.49609375 C3.12239387 48.71542661 5.61181311 52.60737892 8.15625 57.10742188 C11.9639843 64.47130803 11 67.48546747 11 77 C-21.01 77 -53.02 77 -86 77 C-86 59.79615385 -86 59.79615385 -82.0625 53.375 C-78.65827918 47.52094049 -78.65827918 47.52094049 -77 41 C-75.515 40.505 -75.515 40.505 -74 40 C-74.33 38.68 -74.66 37.36 -75 36 C-76.98 35.67 -78.96 35.34 -81 35 C-81.33 32.36 -81.66 29.72 -82 27 C-81.34 27 -80.68 27 -80 27 C-80 29.31 -80 31.62 -80 34 C-77.03 33.505 -77.03 33.505 -74 33 C-72.61888278 35.2747813 -71.94305298 36.50171361 -72.25 39.1875 C-73 41 -73 41 -75 42 C-74.67 43.98 -74.34 45.96 -74 48 C-72.02 47.01 -70.04 46.02 -68 45 C-66.4375 46.75 -66.4375 46.75 -65 49 C-65.3125 51.0625 -65.3125 51.0625 -66 53 C-66 53.99 -66 54.98 -66 56 C-64.05990478 57.70532323 -64.05990478 57.70532323 -62 59 C-61.71125 58.360625 -61.4225 57.72125 -61.125 57.0625 C-60 55 -60 55 -58 54 C-59.875 58.75 -59.875 58.75 -61 61 C-60.40461426 60.99476318 -59.80922852 60.98952637 -59.19580078 60.98413086 C-56.50554453 60.96338001 -53.81530511 60.95034593 -51.125 60.9375 C-50.18785156 60.92912109 -49.25070313 60.92074219 -48.28515625 60.91210938 C-46.94130859 60.90727539 -46.94130859 60.90727539 -45.5703125 60.90234375 C-44.32918701 60.89448853 -44.32918701 60.89448853 -43.06298828 60.88647461 C-41 61 -41 61 -39 62 C-38.67 59.69 -38.34 57.38 -38 55 C-37.67 55 -37.34 55 -37 55 C-37 57.64 -37 60.28 -37 63 C-36.34 62.67 -35.68 62.34 -35 62 C-33.3325394 61.91573906 -31.66174813 61.89274857 -29.9921875 61.90234375 C-29.00605469 61.90556641 -28.01992188 61.90878906 -27.00390625 61.91210938 C-25.97136719 61.92048828 -24.93882813 61.92886719 -23.875 61.9375 C-22.31458984 61.94426758 -22.31458984 61.94426758 -20.72265625 61.95117188 C-18.14838038 61.96298048 -15.57421854 61.97944925 -13 62 C-13.515625 61.21625 -14.03125 60.4325 -14.5625 59.625 C-15.036875 58.75875 -15.51125 57.8925 -16 57 C-15.505 56.01 -15.505 56.01 -15 55 C-13.68 55.99 -12.36 56.98 -11 58 C-10.01 56.68 -9.02 55.36 -8 54 C-8.66 53.34 -9.32 52.68 -10 52 C-9.68134222 48.70720291 -8.45484649 47.13464912 -6 45 C-4.35 45.66 -2.7 46.32 -1 47 C-0.67 45.35 -0.34 43.7 0 42 C-1.485 41.01 -1.485 41.01 -3 40 C-2.125 35.125 -2.125 35.125 -1 34 C0.99958364 33.95919217 3.00045254 33.95745644 5 34 C5.33 32.02 5.66 30.04 6 28 C4.02 27.67 2.04 27.34 0 27 C0 24.69 0 22.38 0 20 C1.98 19.67 3.96 19.34 6 19 C5.505 16.03 5.505 16.03 5 13 C3.02 13.33 1.04 13.66 -1 14 C-1.99 10.535 -1.99 10.535 -3 7 C-1.68 6.01 -0.36 5.02 1 4 C0.505 2.02 0.505 2.02 0 0 Z M-85 64 C-85 67.96 -85 71.92 -85 76 C-53.65 76 -22.3 76 10 76 C10 72.04 10 68.08 10 64 C3.91277254 63.95065846 -2.1743392 63.91430833 -8.26171875 63.89013672 C-10.33367947 63.88006288 -12.40562593 63.86640334 -14.47753906 63.84912109 C-17.45120764 63.82493336 -20.4246887 63.81353092 -23.3984375 63.8046875 C-24.32868744 63.79436493 -25.25893738 63.78404236 -26.21737671 63.77340698 C-27.50848862 63.77318039 -27.50848862 63.77318039 -28.82568359 63.77294922 C-29.96485733 63.76628738 -29.96485733 63.76628738 -31.12704468 63.75949097 C-33.24502299 63.83749845 -33.24502299 63.83749845 -35 66 C-40.56818182 65.43181818 -40.56818182 65.43181818 -42 64 C-43.35094982 63.90731001 -44.70667091 63.88252674 -46.06079102 63.88647461 C-46.92160782 63.88655014 -47.78242462 63.88662567 -48.66932678 63.88670349 C-50.07244362 63.89444542 -50.07244362 63.89444542 -51.50390625 63.90234375 C-52.93342873 63.90446617 -52.93342873 63.90446617 -54.39183044 63.90663147 C-57.44875165 63.91224848 -60.50560077 63.92480384 -63.5625 63.9375 C-65.62955624 63.94251281 -67.69661362 63.94707609 -69.76367188 63.95117188 C-74.84247588 63.96222344 -79.9212257 63.97949945 -85 64 Z " fill="#06438E" transform="translate(86,35)"/>
<path d="M0 0 C0.66 0 1.32 0 2 0 C4.64 5.61 7.28 11.22 10 17 C11.32 16.34 12.64 15.68 14 15 C17.25 16.375 17.25 16.375 20 18 C20 19.65 20 21.3 20 23 C22.31 22.67 24.62 22.34 27 22 C25.68 23.65 24.36 25.3 23 27 C20.83125748 26.49396008 19.00032373 26.00016187 17 25 C17.33 22.69 17.66 20.38 18 18 C15.03 18.495 15.03 18.495 12 19 C11.505 20.485 11.505 20.485 11 22 C8.69 21.67 6.38 21.34 4 21 C4 19.02 4 17.04 4 15 C1.69 15 -0.62 15 -3 15 C-2.979375 15.94875 -2.95875 16.8975 -2.9375 17.875 C-3 21 -3 21 -4 23 C-3.01 23 -2.02 23 -1 23 C-1 24.32 -1 25.64 -1 27 C0.65 27.33 2.3 27.66 4 28 C4 28.33 4 28.66 4 29 C3.24976563 29.01417969 2.49953125 29.02835938 1.7265625 29.04296875 C-6.59015515 29.4305236 -13.58413407 30.91088948 -19.84765625 36.7109375 C-23.67689117 41.02000284 -26.50531959 45.81874068 -29 51 C-29 50.34 -29 49.68 -29 49 C-30.32 49 -31.64 49 -33 49 C-32.5020163 45.26512223 -32.12508244 43.18762365 -30 40 C-29.01 39.505 -29.01 39.505 -28 39 C-29.98 37.68 -31.96 36.36 -34 35 C-32.02 34.505 -32.02 34.505 -30 34 C-29.67 32.35 -29.34 30.7 -29 29 C-29.66 29 -30.32 29 -31 29 C-30.60196439 26.11424181 -30.20990931 25.17810487 -27.9375 23.25 C-27.298125 22.8375 -26.65875 22.425 -26 22 C-24 23 -22 24 -20 25 C-19.34 24.67 -18.68 24.34 -18 24 C-18 21.69 -18 19.38 -18 17 C-11.375 14.875 -11.375 14.875 -8 16 C-5.36 10.72 -2.72 5.44 0 0 Z " fill="#B2C6D6" transform="translate(48,0)"/>
<path d="M0 0 C3 0 3 0 5.0625 2 C5.701875 2.66 6.34125 3.32 7 4 C7.66 4 8.32 4 9 4 C9.33 5.32 9.66 6.64 10 8 C8.02 8.99 8.02 8.99 6 10 C6 11.65 6 13.3 6 15 C5.01 15.495 5.01 15.495 4 16 C5.32 16 6.64 16 8 16 C8.03867187 17.68416016 8.03867187 17.68416016 8.078125 19.40234375 C8.41336091 29.31337762 9.40133664 36.60200496 15 45 C13.68 47.64 12.36 50.28 11 53 C8.525 50.525 8.525 50.525 6 48 C4.35 48.66 2.7 49.32 1 50 C-1 47 -1 47 -0.75 44.875 C0 43 0 43 2 42 C1.67 40.02 1.34 38.04 1 36 C-0.98 36 -2.96 36 -5 36 C-5.33 32.7 -5.66 29.4 -6 26 C-5.01 26 -4.02 26 -3 26 C-3 25.34 -3 24.68 -3 24 C-4.32 23.34 -5.64 22.68 -7 22 C-6.67 19.36 -6.34 16.72 -6 14 C-3.69 14 -1.38 14 1 14 C1 12.68 1 11.36 1 10 C0.01 10 -0.98 10 -2 10 C-3.03023161 6.72199032 -3.17153978 5.38596452 -1.75 2.1875 C-1.1725 1.465625 -0.595 0.74375 0 0 Z " fill="#EAF6FC" transform="translate(11,33)"/>
<path d="M0 0 C0.66 0 1.32 0 2 0 C1.67 1.98 1.34 3.96 1 6 C2.32 6.33 3.64 6.66 5 7 C5.60465268 15.57263135 5.4883211 22.98036955 0 30 C-4.17557914 33.41156919 -8.14059251 33.36775415 -13.3125 33.1875 C-14.42334961 33.16719727 -14.42334961 33.16719727 -15.55664062 33.14648438 C-17.37141075 33.11135979 -19.18580288 33.05755972 -21 33 C-21 32.67 -21 32.34 -21 32 C-17.37 31.67 -13.74 31.34 -10 31 C-9.67 29.68 -9.34 28.36 -9 27 C-13.95 27 -18.9 27 -24 27 C-24 26.67 -24 26.34 -24 26 C-21.36 26 -18.72 26 -16 26 C-16 25.34 -16 24.68 -16 24 C-14.02 23.67 -12.04 23.34 -10 23 C-9.67 18.38 -9.34 13.76 -9 9 C-7.68 9 -6.36 9 -5 9 C-4.67 8.01 -4.34 7.02 -4 6 C-3.67 5.01 -3.34 4.02 -3 3 C-2.01 3 -1.02 3 0 3 C0 2.01 0 1.02 0 0 Z " fill="#06418B" transform="translate(73,47)"/>
<path d="M0 0 C0.33 0 0.66 0 1 0 C1 4.29 1 8.58 1 13 C-13.52 13 -28.04 13 -43 13 C-43 14.65 -43 16.3 -43 18 C-60.82 18 -78.64 18 -97 18 C-97 16.02 -97 14.04 -97 12 C-64.99 12 -32.98 12 0 12 C0 8.04 0 4.08 0 0 Z " fill="#FBFCFE" transform="translate(97,100)"/>
<path d="M0 0 C1.5 1.3125 1.5 1.3125 3 3 C3 6 3 6 1.5 7.5625 C1.005 8.036875 0.51 8.51125 0 9 C0 9.66 0 10.32 0 11 C0.969375 11.12375 1.93875 11.2475 2.9375 11.375 C3.948125 11.58125 4.95875 11.7875 6 12 C7.35439668 14.70879335 7.06501451 17.00933268 7 20 C5.02 20.33 3.04 20.66 1 21 C1.11306697 22.95894361 1.11306697 22.95894361 2 25 C4.49034386 26.29660434 4.49034386 26.29660434 7 27 C7.125 32.75 7.125 32.75 6 35 C2.9375 35.625 2.9375 35.625 0 36 C-0.33 37.32 -0.66 38.64 -1 40 C0.32 40.33 1.64 40.66 3 41 C2.9278125 41.84046875 2.855625 42.6809375 2.78125 43.546875 C3.04504601 47.7110835 4.53373199 50.66668532 6.5 54.25 C10 60.79054054 10 60.79054054 10 63 C2.08 63 -5.84 63 -14 63 C-14.66666667 60.33333333 -15.33333333 57.66666667 -16 55 C-14.35 55.99 -12.7 56.98 -11 58 C-10.01 56.68 -9.02 55.36 -8 54 C-8.66 53.34 -9.32 52.68 -10 52 C-9.68134222 48.70720291 -8.45484649 47.13464912 -6 45 C-4.35 45.66 -2.7 46.32 -1 47 C-0.67 45.35 -0.34 43.7 0 42 C-0.99 41.34 -1.98 40.68 -3 40 C-2.125 35.125 -2.125 35.125 -1 34 C0.99958364 33.95919217 3.00045254 33.95745644 5 34 C5.33 32.02 5.66 30.04 6 28 C4.02 27.67 2.04 27.34 0 27 C0 24.69 0 22.38 0 20 C1.98 19.67 3.96 19.34 6 19 C5.67 17.02 5.34 15.04 5 13 C3.02 13.33 1.04 13.66 -1 14 C-1.66 11.69 -2.32 9.38 -3 7 C-1.68 6.01 -0.36 5.02 1 4 C0.67 2.68 0.34 1.36 0 0 Z " fill="#09458B" transform="translate(86,35)"/>
<path d="M0 0 C0.91644287 0.00523682 1.83288574 0.01047363 2.77709961 0.01586914 C3.76645508 0.0190918 4.75581055 0.02231445 5.77514648 0.02563477 C6.81606445 0.03401367 7.85698242 0.04239258 8.92944336 0.05102539 C10.49662109 0.05779297 10.49662109 0.05779297 12.09545898 0.06469727 C14.68600996 0.07652627 17.27644895 0.0930085 19.86694336 0.11352539 C19.89379748 2.42596331 19.91327177 4.73848809 19.92944336 7.05102539 C19.94104492 8.33879883 19.95264648 9.62657227 19.96459961 10.95336914 C19.86694336 14.11352539 19.86694336 14.11352539 18.86694336 15.11352539 C17.31738777 15.21252062 15.76340663 15.24432063 14.21069336 15.24633789 C12.80110352 15.24827148 12.80110352 15.24827148 11.36303711 15.25024414 C10.37432617 15.24637695 9.38561523 15.24250977 8.36694336 15.23852539 C7.37823242 15.24239258 6.38952148 15.24625977 5.37084961 15.25024414 C4.43112305 15.24895508 3.49139648 15.24766602 2.52319336 15.24633789 C1.65500977 15.24520996 0.78682617 15.24408203 -0.10766602 15.24291992 C-2.13305664 15.11352539 -2.13305664 15.11352539 -3.13305664 14.11352539 C-3.23198604 11.94871742 -3.26276765 9.78058754 -3.25805664 7.61352539 C-3.26063477 6.42758789 -3.26321289 5.24165039 -3.26586914 4.01977539 C-3.08968441 0.16443897 -3.08968441 0.16443897 0 0 Z " fill="#FBFDFD" transform="translate(40.133056640625,52.886474609375)"/>
<path d="M0 0 C2.31 0 4.62 0 7 0 C7 1.98 7 3.96 7 6 C9.31 6.33 11.62 6.66 14 7 C14.33 5.68 14.66 4.36 15 3 C16.98 3 18.96 3 21 3 C20.67 5.31 20.34 7.62 20 10 C22.80764728 10.77426109 22.80764728 10.77426109 26 11 C28.36290685 9.68864588 28.36290685 9.68864588 30 8 C31.32 9.65 32.64 11.3 34 13 C33.34 13.66 32.68 14.32 32 15 C31.01 15 30.02 15 29 15 C29 15.66 29 16.32 29 17 C28.01 17.33 27.02 17.66 26 18 C25.21625 17.175 24.4325 16.35 23.625 15.5 C21.36278736 12.77011494 21.36278736 12.77011494 19 13 C18.67 13.66 18.34 14.32 18 15 C18.57234375 15.26554687 19.1446875 15.53109375 19.734375 15.8046875 C22.1076012 17.05676891 24.12213286 18.4936352 26.25 20.125 C26.95640625 20.66382812 27.6628125 21.20265625 28.390625 21.7578125 C28.92171875 22.16773437 29.4528125 22.57765625 30 23 C29.67 24.32 29.34 25.64 29 27 C28.41605469 26.32904297 28.41605469 26.32904297 27.8203125 25.64453125 C19.93217818 17.12025706 11.36431296 14.30826283 0 13 C0.66 12.67 1.32 12.34 2 12 C1.34 11.01 0.68 10.02 0 9 C-0.66 9.66 -1.32 10.32 -2 11 C-2.66 9.68 -3.32 8.36 -4 7 C-3.01 6.67 -2.02 6.34 -1 6 C-0.67 4.02 -0.34 2.04 0 0 Z " fill="#DDF2FB" transform="translate(45,15)"/>
<path d="M0 0 C2.87687128 0.42620315 4.06571107 1.05683119 6.3125 3 C9.56450399 5.420096 12.01020606 5.68707499 16 6 C16 6.33 16 6.66 16 7 C13.69 7 11.38 7 9 7 C9 7.66 9 8.32 9 9 C9.99 8.7215625 9.99 8.7215625 11 8.4375 C14.89330114 7.86972692 18.11375479 8.40718293 22 9 C22 8.34 22 7.68 22 7 C20.35 7 18.7 7 17 7 C17 6.67 17 6.34 17 6 C20.465 5.505 20.465 5.505 24 5 C24 9.62 24 14.24 24 19 C16.74 18.67 9.48 18.34 2 18 C2.66 16.02 3.32 14.04 4 12 C3.01 13.32 2.02 14.64 1 16 C-2.16115776 14.63016497 -2.9927092 14.0109362 -5 11 C-4.57847656 10.44570312 -4.15695313 9.89140625 -3.72265625 9.3203125 C-3.17480469 8.59585938 -2.62695312 7.87140625 -2.0625 7.125 C-1.51722656 6.40570313 -0.97195312 5.68640625 -0.41015625 4.9453125 C1.03964624 3.05642921 1.03964624 3.05642921 2 1 C1.34 0.67 0.68 0.34 0 0 Z " fill="#EDF9F6" transform="translate(23,78)"/>
<path d="M0 0 C1.98 0.99 1.98 0.99 4 2 C3.67 2.66 3.34 3.32 3 4 C6.96 4 10.92 4 15 4 C16.125 11.625 16.125 11.625 15 15 C24.57 15 34.14 15 44 15 C42.02 15.99 42.02 15.99 40 17 C43.63 17 47.26 17 51 17 C48.525 19.475 48.525 19.475 46 22 C45.505 21.01 45.505 21.01 45 20 C40.38 20 35.76 20 31 20 C30.67 21.98 30.34 23.96 30 26 C29.67 26 29.34 26 29 26 C28.67 23.36 28.34 20.72 28 18 C23.38 18 18.76 18 14 18 C13.34 19.32 12.68 20.64 12 22 C0 9.72327044 0 9.72327044 0 0 Z " fill="#154984" transform="translate(19,62)"/>
<path d="M0 0 C0.33 0 0.66 0 1 0 C1 2.64 1 5.28 1 8 C1.66 7.67 2.32 7.34 3 7 C6.05108631 6.89729016 9.07388557 6.85926407 12.125 6.875 C13.49930176 6.87898804 13.49930176 6.87898804 14.90136719 6.88305664 C22.35587612 6.93257785 29.80125956 7.146998 37.25 7.4375 C38.3033252 7.47665527 39.35665039 7.51581055 40.44189453 7.55615234 C41.41497559 7.59820801 42.38805664 7.64026367 43.390625 7.68359375 C44.25719727 7.72025146 45.12376953 7.75690918 46.01660156 7.79467773 C48 8 48 8 49 9 C49 13.29 49 17.58 49 22 C16.99 22 -15.02 22 -48 22 C-48 17.38 -48 12.76 -48 8 C-32.32228453 7.3070623 -16.69338773 6.85006317 -1 7 C-0.67 4.69 -0.34 2.38 0 0 Z M-47 9 C-47 12.96 -47 16.92 -47 21 C-15.65 21 15.7 21 48 21 C48 17.04 48 13.08 48 9 C41.91277254 8.95065846 35.8256608 8.91430833 29.73828125 8.89013672 C27.66632053 8.88006288 25.59437407 8.86640334 23.52246094 8.84912109 C20.54879236 8.82493336 17.5753113 8.81353092 14.6015625 8.8046875 C13.67131256 8.79436493 12.74106262 8.78404236 11.78262329 8.77340698 C10.49151138 8.77318039 10.49151138 8.77318039 9.17431641 8.77294922 C8.03514267 8.76628738 8.03514267 8.76628738 6.87295532 8.75949097 C4.75497701 8.83749845 4.75497701 8.83749845 3 11 C-2.56818182 10.43181818 -2.56818182 10.43181818 -4 9 C-5.35094982 8.90731001 -6.70667091 8.88252674 -8.06079102 8.88647461 C-8.92160782 8.88655014 -9.78242462 8.88662567 -10.66932678 8.88670349 C-12.07244362 8.89444542 -12.07244362 8.89444542 -13.50390625 8.90234375 C-14.93342873 8.90446617 -14.93342873 8.90446617 -16.39183044 8.90663147 C-19.44875165 8.91224848 -22.50560077 8.92480384 -25.5625 8.9375 C-27.62955624 8.94251281 -29.69661362 8.94707609 -31.76367188 8.95117188 C-36.84247588 8.96222344 -41.9212257 8.97949945 -47 9 Z " fill="#16406C" transform="translate(48,90)"/>
<path d="M0 0 C0.66 0 1.32 0 2 0 C4.64 5.61 7.28 11.22 10 17 C11.32 16.34 12.64 15.68 14 15 C17.25 16.375 17.25 16.375 20 18 C20 19.65 20 21.3 20 23 C22.31 22.67 24.62 22.34 27 22 C25.68 23.65 24.36 25.3 23 27 C20.83125748 26.49396008 19.00032373 26.00016187 17 25 C17.33 22.69 17.66 20.38 18 18 C15.03 18.495 15.03 18.495 12 19 C11.67 19.99 11.34 20.98 11 22 C8.69 21.67 6.38 21.34 4 21 C4 19.02 4 17.04 4 15 C1.69 15 -0.62 15 -3 15 C-3 16.98 -3 18.96 -3 21 C-4.98 21.33 -6.96 21.66 -9 22 C-9.66 20.35 -10.32 18.7 -11 17 C-12.98 17.33 -14.96 17.66 -17 18 C-16.67 20.31 -16.34 22.62 -16 25 C-16.66 24.67 -17.32 24.34 -18 24 C-18 21.69 -18 19.38 -18 17 C-11.375 14.875 -11.375 14.875 -8 16 C-5.36 10.72 -2.72 5.44 0 0 Z " fill="#2B5A8B" transform="translate(48,0)"/>
<path d="M0 0 C5.87153231 -0.09911689 11.74257413 -0.17158611 17.61474609 -0.21972656 C19.61092618 -0.23980169 21.60704775 -0.26706789 23.60302734 -0.30175781 C26.4776862 -0.35045657 29.3515654 -0.37300986 32.2265625 -0.390625 C33.55815903 -0.42159271 33.55815903 -0.42159271 34.91665649 -0.45318604 C40.59276687 -0.45522655 43.59963268 0.36135578 48 4 C47.67 5.65 47.34 7.3 47 9 C46.505 7.515 46.505 7.515 46 6 C44.02 6 42.04 6 40 6 C39.67 6.66 39.34 7.32 39 8 C39 7.34 39 6.68 39 6 C38.01 6.33 37.02 6.66 36 7 C36 6.34 36 5.68 36 5 C34.68 5 33.36 5 32 5 C32.495 7.475 32.495 7.475 33 10 C32.01 10.33 31.02 10.66 30 11 C30 9.35 30 7.7 30 6 C27.17318015 4.77937323 27.17318015 4.77937323 24.875 5.4375 C19.15824444 6.55599565 13.67013669 6.20275627 8 5 C7.01 5.495 7.01 5.495 6 6 C6 5.34 6 4.68 6 4 C4.68 3.67 3.36 3.34 2 3 C1.67 3.99 1.34 4.98 1 6 C0.67 6 0.34 6 0 6 C0 4.02 0 2.04 0 0 Z " fill="#F9FCFE" transform="translate(2,99)"/>
<path d="M0 0 C0.33 0 0.66 0 1 0 C1.02685095 2.47923801 1.04676547 4.9581884 1.0625 7.4375 C1.07087891 8.14455078 1.07925781 8.85160156 1.08789062 9.58007812 C1.09653588 11.38693559 1.05220011 13.19387603 1 15 C0.67 15.33 0.34 15.66 0 16 C0.99 16.66 1.98 17.32 3 18 C1.02 18 -0.96 18 -3 18 C-3 18.66 -3 19.32 -3 20 C-0.69 20.33 1.62 20.66 4 21 C3.67 21.99 3.34 22.98 3 24 C-6.57 24 -16.14 24 -26 24 C-26 21.36 -26 18.72 -26 16 C-25.01 16 -24.02 16 -23 16 C-22.67 15.34 -22.34 14.68 -22 14 C-15.07 14 -8.14 14 -1 14 C-0.67 9.38 -0.34 4.76 0 0 Z " fill="#89ADC9" transform="translate(60,53)"/>
<path d="M0 0 C3.2971316 0.56292491 6.18618174 0.08786861 9.4765625 -0.40625 C11.5625 -0.5625 11.5625 -0.5625 14.5625 0.4375 C16.9031065 0.15980092 19.23874308 -0.16789977 21.5625 -0.5625 C21.5625 1.4175 21.5625 3.3975 21.5625 5.4375 C22.2225 5.7675 22.8825 6.0975 23.5625 6.4375 C19.11510587 6.51199251 14.6680481 6.56626257 10.22021484 6.60229492 C8.70908273 6.61732543 7.19799382 6.63775564 5.68701172 6.66381836 C3.50737813 6.70045689 1.32832425 6.71728338 -0.8515625 6.73046875 C-2.1607666 6.7461792 -3.4699707 6.76188965 -4.81884766 6.77807617 C-8.68616211 6.4140967 -11.11086493 5.38891584 -14.4375 3.4375 C-14.4375 2.4475 -14.4375 1.4575 -14.4375 0.4375 C-9.81944039 -1.1018532 -4.71201914 -1.08738903 0 0 Z " fill="#D1ECF7" transform="translate(72.4375,104.5625)"/>
<path d="M0 0 C6.27 0 12.54 0 19 0 C20.16346154 8.14423077 20.16346154 8.14423077 19 11 C18.34 11.66 17.68 12.32 17 13 C15.68 13 14.36 13 13 13 C13 17.62 13 22.24 13 27 C12.67 27 12.34 27 12 27 C11.67 20.73 11.34 14.46 11 8 C7.37 7.67 3.74 7.34 0 7 C0 4.69 0 2.38 0 0 Z " fill="#8FA9C0" transform="translate(51,43)"/>
<path d="M0 0 C0.33 0.99 0.66 1.98 1 3 C-0.65 3.66 -2.3 4.32 -4 5 C-3.34 6.98 -2.68 8.96 -2 11 C-0.02 11 1.96 11 4 11 C4.33 12.98 4.66 14.96 5 17 C3.02 17.33 1.04 17.66 -1 18 C-1 20.31 -1 22.62 -1 25 C0.98 25.33 2.96 25.66 5 26 C4.67 27.98 4.34 29.96 4 32 C0.04 31.505 0.04 31.505 -4 31 C-3.67 27.7 -3.34 24.4 -3 21 C-3.99 20.67 -4.98 20.34 -6 20 C-5.34 19.34 -4.68 18.68 -4 18 C-3.3574765 15.93125966 -3.3574765 15.93125966 -3 14 C-4.32 13.67 -5.64 13.34 -7 13 C-6.01 13 -5.02 13 -4 13 C-4.33 12.401875 -4.66 11.80375 -5 11.1875 C-6 9 -6 9 -6 6 C-6.66 5.67 -7.32 5.34 -8 5 C-7.67 3.35 -7.34 1.7 -7 0 C-3.89953913 -1.03348696 -2.94389782 -1.17755913 0 0 Z " fill="#EBF7FA" transform="translate(87,37)"/>
<path d="M0 0 C-0.0928125 1.175625 -0.0928125 1.175625 -0.1875 2.375 C-0.125625 3.24125 -0.06375 4.1075 0 5 C0.99 5.66 1.98 6.32 3 7 C2.67 8.65 2.34 10.3 2 12 C-1 13 -1 13 -3.1875 12.0625 C-3.785625 11.711875 -4.38375 11.36125 -5 11 C-7.29886581 13.6915506 -7.29886581 13.6915506 -6.625 16 C-6.41875 16.66 -6.2125 17.32 -6 18 C-6 18.99 -6 19.98 -6 21 C-8 22.6875 -8 22.6875 -10 24 C-12 22.375 -12 22.375 -14 20 C-14.039992 18.00039988 -14.04346799 15.99952758 -14 14 C-14.99 13.34 -15.98 12.68 -17 12 C-16.34 11.34 -15.68 10.68 -15 10 C-12.99453311 10.29868656 -10.99422795 10.63371323 -9 11 C-8.01 10.67 -7.02 10.34 -6 10 C-5.67 7.03 -5.34 4.06 -5 1 C-2 0 -2 0 0 0 Z " fill="#EBF6FA" transform="translate(84,70)"/>
<path d="M0 0 C0.99 0 1.98 0 3 0 C3 2.97 3 5.94 3 9 C3.33 7.35 3.66 5.7 4 4 C4.33 4 4.66 4 5 4 C5.02578125 4.68964844 5.0515625 5.37929688 5.078125 6.08984375 C5.56692006 14.18828911 7.50451932 20.25677898 12 27 C10.68 29.64 9.36 32.28 8 35 C4.46603949 31.46603949 4.2614271 29.87997262 4 25 C4.66 24.01 5.32 23.02 6 22 C4.68 22.33 3.36 22.66 2 23 C1.48504285 20.94017141 0.97313036 18.88244533 0.5 16.8125 C0.15890376 14.99436859 0.15890376 14.99436859 -1 14 C-1.09908783 12.21059028 -1.12970379 10.41714492 -1.125 8.625 C-1.12757812 7.64789063 -1.13015625 6.67078125 -1.1328125 5.6640625 C-1 3 -1 3 0 0 Z " fill="#C3D3E2" transform="translate(14,51)"/>
<path d="M0 0 C2.47128202 0.9566253 3.72986449 1.45972898 4.9375 3.875 C5.0225942 6.76820282 3.88243538 7.89167237 2 10 C2.66 10 3.32 10 4 10 C4 10.66 4 11.32 4 12 C4.598125 11.67 5.19625 11.34 5.8125 11 C8 10 8 10 11 10 C10.67 11.32 10.34 12.64 10 14 C8.68 14.33 7.36 14.66 6 15 C5.01879536 18.05263664 5.01879536 19.94736336 6 23 C3 22 3 22 1 20 C0.67 20.66 0.34 21.32 0 22 C0.0928125 20.515 0.0928125 20.515 0.1875 19 C-0.20633301 15.790261 -1.0439632 14.96074714 -3.515625 12.75390625 C-6.29809278 10.75266981 -9.10592981 8.83561289 -12 7 C-11.67 6.01 -11.34 5.02 -11 4 C-8.74837528 5.04539719 -6.85410839 6.11156417 -4.875 7.625 C-3.11872074 9.19712122 -3.11872074 9.19712122 -1 9 C-1 8.34 -1 7.68 -1 7 C0.32 6.34 1.64 5.68 3 5 C2.01 3.35 1.02 1.7 0 0 Z " fill="#A5B8C6" transform="translate(75,23)"/>
<path d="M0 0 C0.99 0.66 1.98 1.32 3 2 C3 2.66 3 3.32 3 4 C4.65 3.34 6.3 2.68 8 2 C9 3 9 3 9.3125 5.25 C8.90065926 8.87419855 7.37720404 10.28319538 5 13 C3.14731025 15.92154922 1.50042676 18.88372903 0 22 C0 21.34 0 20.68 0 20 C-1.32 20 -2.64 20 -4 20 C-3.5020163 16.26512223 -3.12508244 14.18762365 -1 11 C-0.34 10.67 0.32 10.34 1 10 C-0.98 8.68 -2.96 7.36 -5 6 C-3.68 5.67 -2.36 5.34 -1 5 C-0.67 3.35 -0.34 1.7 0 0 Z " fill="#BBCDD8" transform="translate(19,29)"/>
<path d="M0 0 C2.29141286 -0.05384521 4.58318188 -0.09272087 6.875 -0.125 C8.78925781 -0.15980469 8.78925781 -0.15980469 10.7421875 -0.1953125 C14 0 14 0 16 2 C16.33 2 16.66 2 17 2 C17.495 9.92 17.495 9.92 18 18 C16.68 18 15.36 18 14 18 C14 13.05 14 8.1 14 3 C13.34 3.66 12.68 4.32 12 5 C12 5.66 12 6.32 12 7 C7.71 7 3.42 7 -1 7 C-1 3 -1 3 0 0 Z " fill="#B9CEE1" transform="translate(33,80)"/>
<path d="M0 0 C1.4656401 0.03315928 2.93087264 0.09269146 4.39453125 0.17578125 C5.14412109 0.19833984 5.89371094 0.22089844 6.66601562 0.24414062 C8.51387595 0.30298968 10.36070792 0.39267187 12.20703125 0.48828125 C12.20703125 3.45828125 12.20703125 6.42828125 12.20703125 9.48828125 C6.92703125 9.15828125 1.64703125 8.82828125 -3.79296875 8.48828125 C-3.46296875 6.83828125 -3.13296875 5.18828125 -2.79296875 3.48828125 C-3.95108263 4.54098588 -3.95108263 4.54098588 -4.79296875 6.48828125 C-5.45296875 6.15828125 -6.11296875 5.82828125 -6.79296875 5.48828125 C-5.14790836 1.35937475 -4.53092509 0.58328078 0 0 Z " fill="#E5EFF2" transform="translate(34.79296875,87.51171875)"/>
<path d="M0 0 C1.98 0 3.96 0 6 0 C5.67 2.31 5.34 4.62 5 7 C7.80764728 7.77426109 7.80764728 7.77426109 11 8 C13.36290685 6.68864588 13.36290685 6.68864588 15 5 C16.32 6.65 17.64 8.3 19 10 C18.34 10.66 17.68 11.32 17 12 C16.01 12 15.02 12 14 12 C14 12.66 14 13.32 14 14 C13.01 14.33 12.02 14.66 11 15 C10.236875 14.175 9.47375 13.35 8.6875 12.5 C6.24565858 9.65944803 6.24565858 9.65944803 3 10 C1 8 1 8 0 6 C-0.66 5.67 -1.32 5.34 -2 5 C-1.34 3.35 -0.68 1.7 0 0 Z " fill="#EDF5F7" transform="translate(60,18)"/>
<path d="M0 0 C0.66 0 1.32 0 2 0 C4.64 5.61 7.28 11.22 10 17 C11.32 16.34 12.64 15.68 14 15 C17.25 16.375 17.25 16.375 20 18 C20 19.65 20 21.3 20 23 C23.465 22.505 23.465 22.505 27 22 C25.68 23.65 24.36 25.3 23 27 C20.83125748 26.49396008 19.00032373 26.00016187 17 25 C17.33 22.69 17.66 20.38 18 18 C16.02 18.33 14.04 18.66 12 19 C11.67 19.99 11.34 20.98 11 22 C10.01 21.67 9.02 21.34 8 21 C7.5359375 19.2984375 7.5359375 19.2984375 7.0625 17.5625 C6.39099225 13.93740933 6.39099225 13.93740933 3.875 12.5625 C3.25625 12.376875 2.6375 12.19125 2 12 C2 10.35 2 8.7 2 7 C1.34 7 0.68 7 0 7 C0 6.34 0 5.68 0 5 C-0.66 4.67 -1.32 4.34 -2 4 C-1.34 2.68 -0.68 1.36 0 0 Z " fill="#15498C" transform="translate(48,0)"/>
<path d="M0 0 C9.9 0.33 19.8 0.66 30 1 C28.02 1.99 28.02 1.99 26 3 C29.63 3 33.26 3 37 3 C35.35 4.65 33.7 6.3 32 8 C31.67 7.34 31.34 6.68 31 6 C26.38 6 21.76 6 17 6 C16.67 7.98 16.34 9.96 16 12 C15.67 12 15.34 12 15 12 C14.67 9.36 14.34 6.72 14 4 C9.71 4 5.42 4 1 4 C0.67 2.68 0.34 1.36 0 0 Z " fill="#25548B" transform="translate(33,76)"/>
<path d="M0 0 C0.763125 0.309375 1.52625 0.61875 2.3125 0.9375 C4.18789677 1.67893593 6.08684652 2.36228217 8 3 C8.6875 5.0625 8.6875 5.0625 9 7 C7.02 7.99 7.02 7.99 5 9 C5 10.65 5 12.3 5 14 C4.01 14.495 4.01 14.495 3 15 C4.32 15 5.64 15 7 15 C6.67 20.28 6.34 25.56 6 31 C5.67 31 5.34 31 5 31 C4.80467039 29.2300132 4.61901118 27.45895721 4.4375 25.6875 C4.33308594 24.70136719 4.22867187 23.71523438 4.12109375 22.69921875 C4 20 4 20 5 17 C4.01 17 3.02 17 2 17 C1.67 17.66 1.34 18.32 1 19 C-0.125 17.25 -0.125 17.25 -1 15 C-0.125 12.9375 -0.125 12.9375 1 11 C1 10.01 1 9.02 1 8 C0.34 7.67 -0.32 7.34 -1 7 C-0.67 4.69 -0.34 2.38 0 0 Z " fill="#ECF7FB" transform="translate(12,34)"/>
<path d="M0 0 C6.73211805 5.1625512 11.00804451 10.53418916 13 19 C13.15072493 22.34106926 13.11887124 25.65839728 13 29 C12.67 29 12.34 29 12 29 C11.67 26.03 11.34 23.06 11 20 C10.01 19.67 9.02 19.34 8 19 C8.33 17.02 8.66 15.04 9 13 C8.34 13 7.68 13 7 13 C7 13.99 7 14.98 7 16 C6.34 16 5.68 16 5 16 C4.67 13.69 4.34 11.38 4 9 C-1.94 9 -7.88 9 -14 9 C-14 8.67 -14 8.34 -14 8 C-8.72 8 -3.44 8 2 8 C1.67 7.34 1.34 6.68 1 6 C0.01 5.67 -0.98 5.34 -2 5 C-1.01 4.67 -0.02 4.34 1 4 C0.67 2.68 0.34 1.36 0 0 Z " fill="#144682" transform="translate(66,34)"/>
<path d="M0 0 C0.66 0 1.32 0 2 0 C2 2.31 2 4.62 2 7 C3.98 6.67 5.96 6.34 8 6 C9.38111722 8.2747813 10.05694702 9.50171361 9.75 12.1875 C9 14 9 14 7 15 C7.33 16.98 7.66 18.96 8 21 C9.98 20.01 11.96 19.02 14 18 C15.5625 19.75 15.5625 19.75 17 22 C16.875 24.1875 16.875 24.1875 16 26 C15.01 26.33 14.02 26.66 13 27 C12.67 25.35 12.34 23.7 12 22 C9.36 22.66 6.72 23.32 4 24 C4 25.32 4 26.64 4 28 C3.01 27.67 2.02 27.34 1 27 C1.28875 26.154375 1.5775 25.30875 1.875 24.4375 C3.05958128 20.96349132 3.05958128 20.96349132 3.9375 17.1875 C4.288125 16.135625 4.63875 15.08375 5 14 C5.99 13.67 6.98 13.34 8 13 C7.67 11.68 7.34 10.36 7 9 C4.03 8.505 4.03 8.505 1 8 C0.67 5.36 0.34 2.72 0 0 Z " fill="#1C4B89" transform="translate(4,62)"/>
<path d="M0 0 C0.33 0 0.66 0 1 0 C1 4.29 1 8.58 1 13 C-13.52 13 -28.04 13 -43 13 C-43 14.65 -43 16.3 -43 18 C-45.64 18 -48.28 18 -51 18 C-51 17.34 -51 16.68 -51 16 C-51.99 16 -52.98 16 -54 16 C-54 15.34 -54 14.68 -54 14 C-48.31170254 11.56456597 -42.98324214 11.74320452 -36.9140625 11.8046875 C-35.32868179 11.80893234 -35.32868179 11.80893234 -33.71127319 11.81326294 C-30.34906499 11.8244215 -26.98712714 11.84951841 -23.625 11.875 C-21.33984761 11.88503538 -19.05469102 11.89416025 -16.76953125 11.90234375 C-11.17958398 11.92434673 -5.58983777 11.95884704 0 12 C0 8.04 0 4.08 0 0 Z " fill="#E5F4FD" transform="translate(97,100)"/>
<path d="M0 0 C1.5 1.3125 1.5 1.3125 3 3 C3 6 3 6 1.5 7.5625 C1.005 8.036875 0.51 8.51125 0 9 C0 9.66 0 10.32 0 11 C0.969375 11.12375 1.93875 11.2475 2.9375 11.375 C3.948125 11.58125 4.95875 11.7875 6 12 C7.35439668 14.70879335 7.06501451 17.00933268 7 20 C5.02 20.33 3.04 20.66 1 21 C1.11306697 22.95894361 1.11306697 22.95894361 2 25 C4.49034386 26.29660434 4.49034386 26.29660434 7 27 C7.125 32.75 7.125 32.75 6 35 C2.9375 35.625 2.9375 35.625 0 36 C-0.33 37.32 -0.66 38.64 -1 40 C0.32 40.33 1.64 40.66 3 41 C3 41.99 3 42.98 3 44 C1 44 1 44 -1.1875 42.3125 C-3 40 -3 40 -2.8125 37.3125 C-2 35 -2 35 -1 34 C0.99958364 33.95919217 3.00045254 33.95745644 5 34 C5.495 31.03 5.495 31.03 6 28 C4.02 27.67 2.04 27.34 0 27 C0 24.69 0 22.38 0 20 C1.98 19.67 3.96 19.34 6 19 C5.67 17.02 5.34 15.04 5 13 C3.02 13.33 1.04 13.66 -1 14 C-1.66 11.69 -2.32 9.38 -3 7 C-1.68 6.01 -0.36 5.02 1 4 C0.67 2.68 0.34 1.36 0 0 Z " fill="#5F7388" transform="translate(86,35)"/>
<path d="M0 0 C5.87153231 -0.09911689 11.74257413 -0.17158611 17.61474609 -0.21972656 C19.61092618 -0.23980169 21.60704775 -0.26706789 23.60302734 -0.30175781 C26.4776862 -0.35045657 29.3515654 -0.37300986 32.2265625 -0.390625 C33.55815903 -0.42159271 33.55815903 -0.42159271 34.91665649 -0.45318604 C40.59276687 -0.45522655 43.59963268 0.36135578 48 4 C47.67 5.65 47.34 7.3 47 9 C46.505 7.515 46.505 7.515 46 6 C44.02 6 42.04 6 40 6 C39.67 6.66 39.34 7.32 39 8 C39 7.34 39 6.68 39 6 C38.34 5.67 37.68 5.34 37 5 C37.33 4.34 37.66 3.68 38 3 C29.98999579 1.95368771 22.00746949 1.68011614 13.9375 1.4375 C12.58136984 1.39420372 11.22524989 1.35058634 9.86914062 1.30664062 C6.57951329 1.2012789 3.28981941 1.09915048 0 1 C0 0.67 0 0.34 0 0 Z " fill="#E2FCFE" transform="translate(2,99)"/>
<path d="M0 0 C0.33 0 0.66 0 1 0 C1.02685095 2.47923801 1.04676547 4.9581884 1.0625 7.4375 C1.07087891 8.14455078 1.07925781 8.85160156 1.08789062 9.58007812 C1.09653588 11.38693559 1.05220011 13.19387603 1 15 C0.67 15.33 0.34 15.66 0 16 C0.99 16.66 1.98 17.32 3 18 C-6.57 18 -16.14 18 -26 18 C-26 17.34 -26 16.68 -26 16 C-25.01 16 -24.02 16 -23 16 C-22.67 15.34 -22.34 14.68 -22 14 C-15.07 14 -8.14 14 -1 14 C-0.67 9.38 -0.34 4.76 0 0 Z " fill="#B5C7D7" transform="translate(60,53)"/>
<path d="M0 0 C2.31 0.33 4.62 0.66 7 1 C7 1.33 7 1.66 7 2 C4.69 2 2.38 2 0 2 C0 2.66 0 3.32 0 4 C0.99 3.7215625 0.99 3.7215625 2 3.4375 C5.89330114 2.86972692 9.11375479 3.40718293 13 4 C13 3.34 13 2.68 13 2 C11.35 2 9.7 2 8 2 C8 1.67 8 1.34 8 1 C11.465 0.505 11.465 0.505 15 0 C15 1.65 15 3.3 15 5 C13.30230469 5.03867188 13.30230469 5.03867188 11.5703125 5.078125 C10.08850257 5.13439626 8.60673323 5.19174382 7.125 5.25 C6.37863281 5.26417969 5.63226563 5.27835937 4.86328125 5.29296875 C2.42861619 5.35986341 2.42861619 5.35986341 -1 6 C-2.60337399 7.90628782 -2.60337399 7.90628782 -3 10 C-1.84188612 8.94729537 -1.84188612 8.94729537 -1 7 C3.29 7 7.58 7 12 7 C7.5 10.375 7.5 10.375 3.25 10.1875 C2.45078125 10.16042969 1.6515625 10.13335937 0.828125 10.10546875 C0.22484375 10.07066406 -0.3784375 10.03585938 -1 10 C-1 10.99 -1 11.98 -1 13 C-2.98 13 -4.96 13 -7 13 C-5.35821735 8.22390502 -2.73453298 4.20617096 0 0 Z " fill="#F1FAFC" transform="translate(32,83)"/>
<path d="M0 0 C0 1.66666667 0 3.33333333 0 5 C0.99 5.66 1.98 6.32 3 7 C2.34 7 1.68 7 1 7 C1 7.99 1 8.98 1 10 C2.32 9.67 3.64 9.34 5 9 C4.814375 9.5775 4.62875 10.155 4.4375 10.75 C3.95976454 13.20692525 4.24270636 14.64397534 5 17 C2.33333333 17.66666667 -0.33333333 18.33333333 -3 19 C-5 16 -5 16 -4.75 13.875 C-4 12 -4 12 -2 11 C-2.33 8.03 -2.66 5.06 -3 2 C-2.01 1.34 -1.02 0.68 0 0 Z " fill="#E9F4FA" transform="translate(15,64)"/>
<path d="M0 0 C0.66 0 1.32 0 2 0 C2 4.62 2 9.24 2 14 C-0.97 14 -3.94 14 -7 14 C-4.0212766 4.0212766 -4.0212766 4.0212766 0 0 Z " fill="#F2F7FB" transform="translate(31,51)"/>
<path d="M0 0 C0.66 0 1.32 0 2 0 C2 0.66 2 1.32 2 2 C2.66 2 3.32 2 4 2 C4 3.65 4 5.3 4 7 C4.78375 7.185625 5.5675 7.37125 6.375 7.5625 C9 9 9 9 10.3125 12.625 C10.539375 13.73875 10.76625 14.8525 11 16 C9.35 16 7.7 16 6 16 C5.67 13.69 5.34 11.38 5 9 C3.5459375 9.0309375 3.5459375 9.0309375 2.0625 9.0625 C-1 9 -1 9 -2 8 C-1.28 1.28 -1.28 1.28 0 0 Z " fill="#093E82" transform="translate(46,5)"/>
<path d="M0 0 C0.99 0 1.98 0 3 0 C3 2.97 3 5.94 3 9 C3.33 7.35 3.66 5.7 4 4 C4.33 4 4.66 4 5 4 C5.02715383 5.74991334 5.04646551 7.49994945 5.0625 9.25 C5.07410156 10.22453125 5.08570313 11.1990625 5.09765625 12.203125 C5.01195577 14.65758678 4.70706066 16.66168914 4 19 C2.68 18.67 1.36 18.34 0 18 C0 17.01 0 16.02 0 15 C-0.33 14.67 -0.66 14.34 -1 14 C-1.09908783 12.21059028 -1.12970379 10.41714492 -1.125 8.625 C-1.12757812 7.64789063 -1.13015625 6.67078125 -1.1328125 5.6640625 C-1 3 -1 3 0 0 Z " fill="#99B3CC" transform="translate(14,51)"/>
<path d="M0 0 C2.475 0.495 2.475 0.495 5 1 C5.0825 1.78375 5.165 2.5675 5.25 3.375 C5.4975 4.24125 5.745 5.1075 6 6 C7.30956648 6.71222037 8.6481707 7.37168497 10 8 C11.43758346 9.01260441 12.8545128 10.05512648 14.25 11.125 C14.95640625 11.66382813 15.6628125 12.20265625 16.390625 12.7578125 C16.92171875 13.16773438 17.4528125 13.57765625 18 14 C17.67 15.32 17.34 16.64 17 18 C16.41605469 17.32904297 16.41605469 17.32904297 15.8203125 16.64453125 C11.1449916 11.59216834 6.2800664 8.74200082 0 6 C0 4.02 0 2.04 0 0 Z " fill="#D5EFF8" transform="translate(57,24)"/>
<path d="M0 0 C0.99 0.33 1.98 0.66 3 1 C2.34 1 1.68 1 1 1 C0.67 3.31 0.34 5.62 0 8 C0.99 8.33 1.98 8.66 3 9 C2.67 10.98 2.34 12.96 2 15 C-1.13349732 16.04449911 -1.98968256 15.93423645 -5 15 C-5.33 16.98 -5.66 18.96 -6 21 C-4.02 21.33 -2.04 21.66 0 22 C0 24.31 0 26.62 0 29 C-1.32 28.67 -2.64 28.34 -4 28 C-3.01 28 -2.02 28 -1 28 C-1 26.35 -1 24.7 -1 23 C-1.804375 23.020625 -2.60875 23.04125 -3.4375 23.0625 C-6 23 -6 23 -7 22 C-6.82364548 19.30917128 -6.38164079 16.67148554 -6 14 C-3.69 14 -1.38 14 1 14 C1 12.68 1 11.36 1 10 C0.01 10 -0.98 10 -2 10 C-3.06351675 6.61608307 -3.21442982 5.4195366 -1.5625 2.1875 C-1.046875 1.465625 -0.53125 0.74375 0 0 Z " fill="#597188" transform="translate(11,33)"/>
<path d="M0 0 C3.14737182 0.69941596 6.02588876 1.76078698 9 3 C8.67 4.32 8.34 5.64 8 7 C7.34 6.67 6.68 6.34 6 6 C6 5.34 6 4.68 6 4 C5.01 4 4.02 4 3 4 C3.66 4.33 4.32 4.66 5 5 C5 5.66 5 6.32 5 7 C3.35 7.33 1.7 7.66 0 8 C-0.66 6.68 -1.32 5.36 -2 4 C-2.66 4 -3.32 4 -4 4 C-4.33 4.99 -4.66 5.98 -5 7 C-6.98 7 -8.96 7 -11 7 C-10.67 5.68 -10.34 4.36 -10 3 C-6.7 3 -3.4 3 0 3 C0 2.01 0 1.02 0 0 Z " fill="#91A3B7" transform="translate(48,102)"/>
<path d="M0 0 C0.66 1.65 1.32 3.3 2 5 C1.38125 4.79375 0.7625 4.5875 0.125 4.375 C-0.57625 4.25125 -1.2775 4.1275 -2 4 C-2.66 4.66 -3.32 5.32 -4 6 C-6.625 6.625 -6.625 6.625 -9 7 C-12 3.375 -12 3.375 -12 0 C-7.91556885 -1.53166168 -4.20544343 -0.63081652 0 0 Z " fill="#F2FAF9" transform="translate(31,26)"/>
<path d="M0 0 C5.94 0 11.88 0 18 0 C17.67 0.66 17.34 1.32 17 2 C16.01 2 15.02 2 14 2 C13.67 2.99 13.34 3.98 13 5 C12.31292969 4.9278125 11.62585937 4.855625 10.91796875 4.78125 C10.01691406 4.6884375 9.11585937 4.595625 8.1875 4.5 C7.29417969 4.4071875 6.40085937 4.314375 5.48046875 4.21875 C2.91694901 3.95607599 2.91694901 3.95607599 0 4 C0 2.68 0 1.36 0 0 Z " fill="#EAF7FC" transform="translate(51,45)"/>
<path d="M0 0 C0.33 0.99 0.66 1.98 1 3 C2.94603274 3.59070014 2.94603274 3.59070014 5 4 C5.66 4.66 6.32 5.32 7 6 C0.4 6 -6.2 6 -13 6 C-13 4.35 -13 2.7 -13 1 C-12.34 1 -11.68 1 -11 1 C-10.319375 1.7425 -10.319375 1.7425 -9.625 2.5 C-7.87871033 4.45218674 -7.87871033 4.45218674 -4 4 C-4.66 3.67 -5.32 3.34 -6 3 C-6 2.34 -6 1.68 -6 1 C-4.35 1.33 -2.7 1.66 -1 2 C-0.67 1.34 -0.34 0.68 0 0 Z " fill="#DBF1F8" transform="translate(57,105)"/>
<path d="M0 0 C2.27678571 8.03571429 2.27678571 8.03571429 1 12 C-1.93947102 10.53026449 -3.72313308 9.56830578 -5.1875 6.5625 C-6 4 -6 4 -6 1 C-3 0 -3 0 0 0 Z " fill="#EEF9FC" transform="translate(37,17)"/>
<path d="M0 0 C1.65 0.33 3.3 0.66 5 1 C4.93489583 2.92057292 4.86979167 4.84114583 4.8046875 6.76171875 C4.9389492 9.54644834 4.9389492 9.54644834 7 14 C0.07 14 -6.86 14 -14 14 C-14 13.67 -14 13.34 -14 13 C-5.585 12.505 -5.585 12.505 3 12 C2.34 9.36 1.68 6.72 1 4 C0.67 2.68 0.34 1.36 0 0 Z " fill="#9DBAD8" transform="translate(66,83)"/>
<path d="M0 0 C2.98494298 0 5.68291805 0.1457694 8.625 0.5 C10.7757353 0.7572308 12.83403806 1 15 1 C15.33 2.32 15.66 3.64 16 5 C15.07767578 4.98259766 15.07767578 4.98259766 14.13671875 4.96484375 C12.92435547 4.95130859 12.92435547 4.95130859 11.6875 4.9375 C10.88699219 4.92589844 10.08648437 4.91429688 9.26171875 4.90234375 C6.83138666 4.90342145 6.83138666 4.90342145 4 6 C1.8125 5.5625 1.8125 5.5625 0 5 C0 3.35 0 1.7 0 0 Z " fill="#798CA5" transform="translate(68,104)"/>
<path d="M0 0 C4.62 0 9.24 0 14 0 C14 0.33 14 0.66 14 1 C8.06 1.495 8.06 1.495 2 2 C2 2.99 2 3.98 2 5 C2.66 5.66 3.32 6.32 4 7 C3.67 7.33 3.34 7.66 3 8 C6.96 8.33 10.92 8.66 15 9 C15 9.33 15 9.66 15 10 C8.565 10.495 8.565 10.495 2 11 C1.67 12.65 1.34 14.3 1 16 C0.67 16 0.34 16 0 16 C0 10.72 0 5.44 0 0 Z " fill="#EEFAFE" transform="translate(50,81)"/>
<path d="M0 0 C1.22589844 0.15275391 1.22589844 0.15275391 2.4765625 0.30859375 C3.41628906 0.43427734 3.41628906 0.43427734 4.375 0.5625 C4.375 1.5525 4.375 2.5425 4.375 3.5625 C3.385 3.5625 2.395 3.5625 1.375 3.5625 C1.375 4.5525 1.375 5.5425 1.375 6.5625 C0.715 6.5625 0.055 6.5625 -0.625 6.5625 C-0.955 7.2225 -1.285 7.8825 -1.625 8.5625 C-1.625 7.9025 -1.625 7.2425 -1.625 6.5625 C-2.285 6.5625 -2.945 6.5625 -3.625 6.5625 C-3.625 4.9125 -3.625 3.2625 -3.625 1.5625 C-4.615 1.2325 -5.605 0.9025 -6.625 0.5625 C-4.10446405 -0.69776798 -2.7707902 -0.35624445 0 0 Z " fill="#043F84" transform="translate(27.625,66.4375)"/>
<path d="M0 0 C-0.99 0.495 -0.99 0.495 -2 1 C-2 2.65 -2 4.3 -2 6 C-4.64 6 -7.28 6 -10 6 C-10 5.34 -10 4.68 -10 4 C-10.99 4 -11.98 4 -13 4 C-13 3.34 -13 2.68 -13 2 C-8.49646738 0.24252386 -4.82360189 -0.19294408 0 0 Z " fill="#A7B9D1" transform="translate(56,112)"/>
<path d="M0 0 C1.98 0.495 1.98 0.495 4 1 C4 1.66 4 2.32 4 3 C5.98 3 7.96 3 10 3 C10 3.99 10 4.98 10 6 C7.69 6.66 5.38 7.32 3 8 C2.34 7.34 1.68 6.68 1 6 C0.01 6.495 0.01 6.495 -1 7 C-0.67 4.69 -0.34 2.38 0 0 Z " fill="#9DB6C8" transform="translate(4,102)"/>
<path d="M0 0 C7.12600133 -0.35368021 12.47059106 0.04328652 19 3 C18.67 4.65 18.34 6.3 18 8 C17.67 7.01 17.34 6.02 17 5 C15.02 5 13.04 5 11 5 C10.67 5.66 10.34 6.32 10 7 C10 6.34 10 5.68 10 5 C9.34 4.67 8.68 4.34 8 4 C8.33 3.34 8.66 2.68 9 2 C6.03 1.67 3.06 1.34 0 1 C0 0.67 0 0.34 0 0 Z " fill="#E8F4F9" transform="translate(31,100)"/>
<path d="M0 0 C0.66 0 1.32 0 2 0 C2 3.63 2 7.26 2 11 C4.97 11 7.94 11 11 11 C11 9.68 11 8.36 11 7 C11.99 6.67 12.98 6.34 14 6 C14 7.98 14 9.96 14 12 C9.71 12 5.42 12 1 12 C-0.26237731 9.47524538 -0.09856404 7.68799534 -0.0625 4.875 C-0.05347656 3.96492188 -0.04445312 3.05484375 -0.03515625 2.1171875 C-0.02355469 1.41851562 -0.01195312 0.71984375 0 0 Z " fill="#194977" transform="translate(37,38)"/>
<path d="M0 0 C1.258125 -0.020625 2.51625 -0.04125 3.8125 -0.0625 C4.52019531 -0.07410156 5.22789063 -0.08570312 5.95703125 -0.09765625 C8 0 8 0 11 1 C11 2.32 11 3.64 11 5 C9.35 5.33 7.7 5.66 6 6 C6 4.68 6 3.36 6 2 C5.01 2 4.02 2 3 2 C3 2.66 3 3.32 3 4 C3.66 4.33 4.32 4.66 5 5 C4.01 5 3.02 5 2 5 C2 4.34 2 3.68 2 3 C1.34 3 0.68 3 0 3 C-0.33 3.66 -0.66 4.32 -1 5 C-0.67 3.35 -0.34 1.7 0 0 Z " fill="#9FB1C3" transform="translate(16,104)"/>
<path d="M0 0 C0.99 0.33 1.98 0.66 3 1 C2.69894935 4.61260785 2.29131912 5.74509577 -0.5 8.1875 C-1.325 8.785625 -2.15 9.38375 -3 10 C-3.33 10.66 -3.66 11.32 -4 12 C-7.16115776 10.63016497 -7.9927092 10.0109362 -10 7 C-9.01 6.34 -8.02 5.68 -7 5 C-7 5.99 -7 6.98 -7 8 C-6.01 8 -5.02 8 -4 8 C-3.34 6.68 -2.68 5.36 -2 4 C-1.01 4.33 -0.02 4.66 1 5 C0.67 3.35 0.34 1.7 0 0 Z " fill="#DAEFF9" transform="translate(28,82)"/>
<path d="M0 0 C1.65 1.65 3.3 3.3 5 5 C4.34 5.66 3.68 6.32 3 7 C2.01 7 1.02 7 0 7 C0 7.66 0 8.32 0 9 C-0.99 9.33 -1.98 9.66 -3 10 C-3.66 8.35 -4.32 6.7 -5 5 C-4.01 5 -3.02 5 -2 5 C-1.7834375 4.0409375 -1.7834375 4.0409375 -1.5625 3.0625 C-1 1 -1 1 0 0 Z " fill="#EFF7FC" transform="translate(74,23)"/>
<path d="M0 0 C0.33 0.66 0.66 1.32 1 2 C-0.485 4.475 -0.485 4.475 -2 7 C4.6 7 11.2 7 18 7 C18 7.33 18 7.66 18 8 C10.41 8.33 2.82 8.66 -5 9 C-5 8.34 -5 7.68 -5 7 C-5.66 6.34 -6.32 5.68 -7 5 C-6.34 4.67 -5.68 4.34 -5 4 C-4.34 4.33 -3.68 4.66 -3 5 C-2.690625 4.360625 -2.38125 3.72125 -2.0625 3.0625 C-1 1 -1 1 0 0 Z " fill="#5279A5" transform="translate(27,89)"/>
<path d="M0 0 C4.95 0 9.9 0 15 0 C15.33 1.32 15.66 2.64 16 4 C11.05 4 6.1 4 1 4 C1.33 3.34 1.66 2.68 2 2 C1.34 1.34 0.68 0.68 0 0 Z " fill="#E0E7EE" transform="translate(51,88)"/>
<path d="M0 0 C4.29 0 8.58 0 13 0 C12.67 1.32 12.34 2.64 12 4 C11.28972656 3.98839844 10.57945313 3.97679688 9.84765625 3.96484375 C8.92855469 3.95582031 8.00945313 3.94679688 7.0625 3.9375 C5.68771484 3.92009766 5.68771484 3.92009766 4.28515625 3.90234375 C2.03406673 3.74050951 2.03406673 3.74050951 1 5 C0.34 4.67 -0.32 4.34 -1 4 C-0.67 2.68 -0.34 1.36 0 0 Z " fill="#DCE4ED" transform="translate(52,82)"/>
<path d="M0 0 C3.4375 0.8125 3.4375 0.8125 7 2 C8 5 8 5 8 8 C11.465 7.505 11.465 7.505 15 7 C13.68 8.65 12.36 10.3 11 12 C8.83125748 11.49396008 7.00032373 11.00016187 5 10 C5.33 7.69 5.66 5.38 6 3 C4.02 3 2.04 3 0 3 C0 2.01 0 1.02 0 0 Z " fill="#748BA5" transform="translate(60,15)"/>
<path d="M0 0 C0.99 0.99 1.98 1.98 3 3 C2.2265625 4.175625 2.2265625 4.175625 1.4375 5.375 C0.963125 6.24125 0.48875 7.1075 0 8 C0.33 8.66 0.66 9.32 1 10 C0.0625 12.125 0.0625 12.125 -1 14 C-1 13.34 -1 12.68 -1 12 C-2.32 12 -3.64 12 -5 12 C-4.5020163 8.26512223 -4.12508244 6.18762365 -2 3 C-1.34 2.67 -0.68 2.34 0 2 C0 1.34 0 0.68 0 0 Z " fill="#B4C5CF" transform="translate(20,37)"/>
<path d="M0 0 C0.66 0 1.32 0 2 0 C2 2.31 2 4.62 2 7 C3.98 6.67 5.96 6.34 8 6 C9.32789969 8.1871289 10.04752686 9.47720456 9.8125 12.0625 C8.87605999 14.29554926 7.88552944 15.49157644 6 17 C5.34 17 4.68 17 4 17 C4.66 15.68 5.32 14.36 6 13 C6.66 13 7.32 13 8 13 C7.67 11.68 7.34 10.36 7 9 C4.03 8.505 4.03 8.505 1 8 C0.67 5.36 0.34 2.72 0 0 Z " fill="#5C7B92" transform="translate(4,62)"/>
<path d="M0 0 C0 1.32 0 2.64 0 4 C-0.66 4 -1.32 4 -2 4 C-2.33 4.66 -2.66 5.32 -3 6 C-4.98 5.01 -6.96 4.02 -9 3 C-9 2.01 -9 1.02 -9 0 C-5.67465243 -1.10844919 -3.37817425 -0.84454356 0 0 Z " fill="#A9BED4" transform="translate(67,105)"/>
<path d="M0 0 C0.66 0.99 1.32 1.98 2 3 C1.34 4.32 0.68 5.64 0 7 C1.32 7.33 2.64 7.66 4 8 C3.01 8.33 2.02 8.66 1 9 C0.34 9.66 -0.32 10.32 -1 11 C-2.5625 9.9375 -2.5625 9.9375 -4 8 C-3.6875 4.3125 -3.6875 4.3125 -3 1 C-2.01 0.67 -1.02 0.34 0 0 Z " fill="#0B468D" transform="translate(33,71)"/>
<path d="M0 0 C3.5786304 1.65167557 6.74820188 3.78286492 10 6 C9.67 6.99 9.34 7.98 9 9 C5.4213696 7.34832443 2.25179812 5.21713508 -1 3 C-0.67 2.01 -0.34 1.02 0 0 Z " fill="#8FA5BD" transform="translate(64,27)"/>
<path d="M0 0 C2.64 0 5.28 0 8 0 C7.01 0.33 6.02 0.66 5 1 C5 1.66 5 2.32 5 3 C5.99 3.33 6.98 3.66 8 4 C7.67 4.66 7.34 5.32 7 6 C5.02 6 3.04 6 1 6 C0 1.125 0 1.125 0 0 Z " fill="#A8BDCB" transform="translate(48,21)"/>
<path d="M0 0 C0.33 0 0.66 0 1 0 C1 2.64 1 5.28 1 8 C2.32 8.33 3.64 8.66 5 9 C4.01 10.485 4.01 10.485 3 12 C0.0625 11.625 0.0625 11.625 -3 11 C-3.33 10.34 -3.66 9.68 -4 9 C-3.34 9 -2.68 9 -2 9 C-1.34 6.03 -0.68 3.06 0 0 Z " fill="#1D5085" transform="translate(48,90)"/>
<path d="M0 0 C2.49361571 1.20381448 4.68143083 2.45428722 7 4 C7 4.99 7 5.98 7 7 C5.02 7.33 3.04 7.66 1 8 C0.67 5.36 0.34 2.72 0 0 Z " fill="#CEDDE6" transform="translate(76,43)"/>
<path d="M0 0 C2.125 0.9375 2.125 0.9375 4 2 C2.35 2 0.7 2 -1 2 C-0.67 3.98 -0.34 5.96 0 8 C-2.64 8 -5.28 8 -8 8 C-8 7.01 -8 6.02 -8 5 C-8.66 5 -9.32 5 -10 5 C-10 4.34 -10 3.68 -10 3 C-9.01 3 -8.02 3 -7 3 C-7 4.32 -7 5.64 -7 7 C-5.35 6.67 -3.7 6.34 -2 6 C-2 4.35 -2 2.7 -2 1 C-1.34 0.67 -0.68 0.34 0 0 Z " fill="#DBF0F9" transform="translate(29,103)"/>
<path d="M0 0 C1.65 0.99 3.3 1.98 5 3 C4.01 3.33 3.02 3.66 2 4 C1.67 5.65 1.34 7.3 1 9 C-0.32 8.34 -1.64 7.68 -3 7 C-2.38722388 4.03824877 -1.74627478 2.61941217 0 0 Z " fill="#1F4C87" transform="translate(79,80)"/>
<path d="M0 0 C1.32 0.99 2.64 1.98 4 3 C2.92598892 5.91517292 2.22189824 7.77810176 0 10 C-1.49821059 6.62902617 -2 4.79557881 -2 1 C-1.34 0.67 -0.68 0.34 0 0 Z " fill="#9FBACC" transform="translate(21,76)"/>
<path d="M0 0 C0 1.32 0 2.64 0 4 C-3.05263664 4.98120464 -4.94736336 4.98120464 -8 4 C-7.6875 2.0625 -7.6875 2.0625 -7 0 C-3.86650268 -1.04449911 -3.01031744 -0.93423645 0 0 Z " fill="#8DA2B6" transform="translate(93,105)"/>
<path d="M0 0 C1.32 0 2.64 0 4 0 C4 0.66 4 1.32 4 2 C5.65 2 7.3 2 9 2 C5.81237635 4.12508244 3.73487777 4.5020163 0 5 C-0.33 5.99 -0.66 6.98 -1 8 C-2 6 -2 6 -1.0625 2.875 C-0.5365625 1.451875 -0.5365625 1.451875 0 0 Z " fill="#ABBAC7" transform="translate(79,66)"/>
<path d="M0 0 C1.98 0 3.96 0 6 0 C6 2.31 6 4.62 6 7 C4.02 6.01 2.04 5.02 0 4 C0 2.68 0 1.36 0 0 Z " fill="#F2FEFB" transform="translate(46,15)"/>
<path d="M0 0 C1 3 1 3 0.3125 5 C-1.17477001 7.26631621 -2.75769234 8.50512823 -5 10 C-5.33 9.34 -5.66 8.68 -6 8 C-6.99 7.34 -7.98 6.68 -9 6 C-8.34 5.67 -7.68 5.34 -7 5 C-6.34 5.33 -5.68 5.66 -5 6 C-4.67 5.01 -4.34 4.02 -4 3 C-1.9375 2.3125 -1.9375 2.3125 0 2 C0 1.34 0 0.68 0 0 Z " fill="#9CB4C3" transform="translate(79,73)"/>
<path d="M0 0 C2.70608417 1.35304209 2.96183047 2.80966544 4.125 5.5625 C4.47820313 6.38878906 4.83140625 7.21507812 5.1953125 8.06640625 C5.46085937 8.70449219 5.72640625 9.34257812 6 10 C6.66 9.67 7.32 9.34 8 9 C7.67 10.98 7.34 12.96 7 15 C6.01 14.67 5.02 14.34 4 14 C3.0859375 12.109375 3.0859375 12.109375 2.375 9.75 C2.12878906 8.94175781 1.88257813 8.13351562 1.62890625 7.30078125 C0.96774674 4.88200515 0.39941191 2.47635384 0 0 Z " fill="#2C598B" transform="translate(52,7)"/>
<path d="M0 0 C0.6875 2.0625 0.6875 2.0625 1 4 C0.38125 3.79375 -0.2375 3.5875 -0.875 3.375 C-1.57625 3.25125 -2.2775 3.1275 -3 3 C-3.66 3.66 -4.32 4.32 -5 5 C-5.66 4.67 -6.32 4.34 -7 4 C-7 2.68 -7 1.36 -7 0 C-3.98968256 -0.93423645 -3.13349732 -1.04449911 0 0 Z " fill="#E7F4F9" transform="translate(32,27)"/>
<path d="M0 0 C2.66666667 1.33333333 5.33333333 2.66666667 8 4 C4.98968256 4.93423645 4.13349732 5.04449911 1 4 C-0.32 4 -1.64 4 -3 4 C-3 4.99 -3 5.98 -3 7 C-3.66 7 -4.32 7 -5 7 C-4.60196439 4.11424181 -4.20990931 3.17810487 -1.9375 1.25 C-1.298125 0.8375 -0.65875 0.425 0 0 Z " fill="#798DA5" transform="translate(22,22)"/>
<path d="M0 0 C0.66 0 1.32 0 2 0 C2 0.66 2 1.32 2 2 C2.66 2 3.32 2 4 2 C4 3.65 4 5.3 4 7 C2.0625 7.5625 2.0625 7.5625 0 8 C-0.33 7.67 -0.66 7.34 -1 7 C-0.71269945 4.66055264 -0.38063221 2.3260857 0 0 Z " fill="#0D448D" transform="translate(45,6)"/>
<path d="M0 0 C0.66 0.99 1.32 1.98 2 3 C4.97903963 4.15317663 5.86559131 4.0448029 9 3 C9.66 3.66 10.32 4.32 11 5 C7.98509443 6.00496852 5.95818308 6.10335303 2.8125 6.0625 C1.46091797 6.04896484 1.46091797 6.04896484 0.08203125 6.03515625 C-0.60503906 6.02355469 -1.29210937 6.01195313 -2 6 C-2 5.34 -2 4.68 -2 4 C-1.34 4 -0.68 4 0 4 C0 2.68 0 1.36 0 0 Z " fill="#DCF4FC" transform="translate(67,105)"/>
<path d="M0 0 C0.33 1.32 0.66 2.64 1 4 C-3.95 4 -8.9 4 -14 4 C-14 3.67 -14 3.34 -14 3 C-11.36 3 -8.72 3 -6 3 C-6 2.34 -6 1.68 -6 1 C-4.02 0.67 -2.04 0.34 0 0 Z " fill="#0B3F74" transform="translate(63,70)"/>
<path d="M0 0 C1.32 0 2.64 0 4 0 C4 1.32 4 2.64 4 4 C4.33 4.66 4.66 5.32 5 6 C3.02 6 1.04 6 -1 6 C-1.33 5.01 -1.66 4.02 -2 3 C-1.34 2.01 -0.68 1.02 0 0 Z " fill="#F1F6F9" transform="translate(87,41)"/>
<path d="M0 0 C1.5 1.3125 1.5 1.3125 3 3 C3 6 3 6 1.5 7.5625 C1.005 8.036875 0.51 8.51125 0 9 C0 9.66 0 10.32 0 11 C0.66 11.66 1.32 12.32 2 13 C0.68 13 -0.64 13 -2 13 C-2.33 11.02 -2.66 9.04 -3 7 C-1.68 6.01 -0.36 5.02 1 4 C0.67 2.68 0.34 1.36 0 0 Z " fill="#6B8198" transform="translate(86,35)"/>
<path d="M0 0 C2.475 0.495 2.475 0.495 5 1 C5.33 1.99 5.66 2.98 6 4 C5.01 4.99 4.02 5.98 3 7 C2.01 6.34 1.02 5.68 0 5 C-0.1875 2.375 -0.1875 2.375 0 0 Z " fill="#A2BAD1" transform="translate(57,24)"/>
<path d="M0 0 C-1.65 1.32 -3.3 2.64 -5 4 C-5.33 3.34 -5.66 2.68 -6 2 C-9.04581269 1.53045739 -9.04581269 1.53045739 -12.5625 1.375 C-13.76003906 1.30023438 -14.95757812 1.22546875 -16.19140625 1.1484375 C-17.11824219 1.09945312 -18.04507813 1.05046875 -19 1 C-19 0.67 -19 0.34 -19 0 C-16.20865148 -0.19425873 -13.41716313 -0.38069517 -10.625 -0.5625 C-9.8309375 -0.61857422 -9.036875 -0.67464844 -8.21875 -0.73242188 C-2.2265625 -1.11328125 -2.2265625 -1.11328125 0 0 Z " fill="#5075A2" transform="translate(70,80)"/>
<path d="M0 0 C0.33 0 0.66 0 1 0 C0.979375 0.94875 0.95875 1.8975 0.9375 2.875 C0.77448174 5.90666283 0.77448174 5.90666283 2 8 C1.360625 8.28875 0.72125 8.5775 0.0625 8.875 C-2.15206079 9.82823451 -2.15206079 9.82823451 -3 12 C-3.66 12 -4.32 12 -5 12 C-3.41037341 7.96479403 -1.71767682 3.98188718 0 0 Z " fill="#CEEAF4" transform="translate(77,67)"/>
<path d="M0 0 C0.66 0 1.32 0 2 0 C2 0.66 2 1.32 2 2 C2.66 2 3.32 2 4 2 C4.33 3.65 4.66 5.3 5 7 C4.01 7.33 3.02 7.66 2 8 C1.34 7.67 0.68 7.34 0 7 C0 4.69 0 2.38 0 0 Z " fill="#0B3F8C" transform="translate(19,55)"/>
<path d="M0 0 C0.99 0 1.98 0 3 0 C2.25 7.75 2.25 7.75 0 10 C-1 9 -1 9 -1.125 6.125 C-1 3 -1 3 0 0 Z " fill="#93A4B5" transform="translate(14,51)"/>
<path d="M0 0 C0.99 0.33 1.98 0.66 3 1 C3 2.98 3 4.96 3 7 C1.68 7.33 0.36 7.66 -1 8 C-0.67 5.36 -0.34 2.72 0 0 Z " fill="#9EB1C9" transform="translate(81,57)"/>
<path d="M0 0 C1.32 0.33 2.64 0.66 4 1 C3.01 1 2.02 1 1 1 C1.33 3.31 1.66 5.62 2 8 C0.02 8.99 0.02 8.99 -2 10 C-2.66 9.01 -3.32 8.02 -4 7 C-3.525625 6.5875 -3.05125 6.175 -2.5625 5.75 C-0.83733482 3.817815 -0.43415125 2.51807725 0 0 Z " fill="#E4F2F9" transform="translate(29,16)"/>
<path d="M0 0 C0.66 0 1.32 0 2 0 C2.45375 0.495 2.9075 0.99 3.375 1.5 C5.12128967 3.45218674 5.12128967 3.45218674 9 3 C9 3.66 9 4.32 9 5 C6.03 5 3.06 5 0 5 C0 3.35 0 1.7 0 0 Z " fill="#CDE5F0" transform="translate(44,106)"/>
<path d="M0 0 C0.33 0 0.66 0 1 0 C1 2.31 1 4.62 1 7 C-1.97 7 -4.94 7 -8 7 C-7.67 5.35 -7.34 3.7 -7 2 C-6.34 2.33 -5.68 2.66 -5 3 C-5.33 3.99 -5.66 4.98 -6 6 C-3.49034386 5.29660434 -3.49034386 5.29660434 -1 4 C-0.11306697 1.95894361 -0.11306697 1.95894361 0 0 Z " fill="#EAFDFE" transform="translate(32,58)"/>
<path d="M0 0 C2.31 0.33 4.62 0.66 7 1 C7 1.66 7 2.32 7 3 C4.69 4.32 2.38 5.64 0 7 C0 4.69 0 2.38 0 0 Z " fill="#C2D6DF" transform="translate(28,29)"/>
<path d="M0 0 C4.29 0 8.58 0 13 0 C13.33 1.32 13.66 2.64 14 4 C12.35 4 10.7 4 9 4 C9 3.34 9 2.68 9 2 C6.03 1.67 3.06 1.34 0 1 C0 0.67 0 0.34 0 0 Z " fill="#E1E9EC" transform="translate(32,91)"/>
<path d="M0 0 C1.98 0 3.96 0 6 0 C6.33 1.65 6.66 3.3 7 5 C5.02 5.99 5.02 5.99 3 7 C3.33 5.35 3.66 3.7 4 2 C2.68 2 1.36 2 0 2 C0 1.34 0 0.68 0 0 Z " fill="#E5F3F8" transform="translate(5,70)"/>
<path d="M0 0 C0.66 0 1.32 0 2 0 C1.67 4.62 1.34 9.24 1 14 C0.67 14 0.34 14 0 14 C-0.19532961 12.2300132 -0.38098882 10.45895721 -0.5625 8.6875 C-0.66691406 7.70136719 -0.77132813 6.71523438 -0.87890625 5.69921875 C-1 3 -1 3 0 0 Z " fill="#DAF2FA" transform="translate(17,51)"/>
<path d="M0 0 C0.33 0 0.66 0 1 0 C1 1.65 1 3.3 1 5 C0.01 5.495 0.01 5.495 -1 6 C-2.13350534 8.01669827 -2.13350534 8.01669827 -3 10 C-3.33 7.69 -3.66 5.38 -4 3 C-3.01 3 -2.02 3 -1 3 C-0.67 2.01 -0.34 1.02 0 0 Z " fill="#D2E6EF" transform="translate(9,56)"/>
<path d="M0 0 C3.16115776 1.36983503 3.9927092 1.9890638 6 5 C5.34 5 4.68 5 4 5 C3.67 5.99 3.34 6.98 3 8 C0.9375 6.25 0.9375 6.25 -1 4 C-0.75 1.75 -0.75 1.75 0 0 Z " fill="#FAFCFC" transform="translate(9,49)"/>
<path d="M0 0 C2.625 1.4375 2.625 1.4375 5 3 C4.67 4.65 4.34 6.3 4 8 C2 7 2 7 -1 5 C-1.6875 2.875 -1.6875 2.875 -2 1 C-1.34 0.67 -0.68 0.34 0 0 Z " fill="#E1E7F0" transform="translate(34,21)"/>
<path d="M0 0 C1.32 0.66 2.64 1.32 4 2 C3.67 3.65 3.34 5.3 3 7 C1.66666667 7 0.33333333 7 -1 7 C-0.67 4.69 -0.34 2.38 0 0 Z " fill="#A9BBC5" transform="translate(4,102)"/>
<path d="M0 0 C4.8 2.46153846 4.8 2.46153846 5.8125 5.1875 C5.874375 5.785625 5.93625 6.38375 6 7 C4.68 7.33 3.36 7.66 2 8 C1.33333333 5.33333333 0.66666667 2.66666667 0 0 Z " fill="#245188" transform="translate(70,90)"/>
<path d="M0 0 C-1.8125 2.5 -1.8125 2.5 -4 5 C-4.99 5 -5.98 5 -7 5 C-6.67 3.35 -6.34 1.7 -6 0 C-2.25 -1.125 -2.25 -1.125 0 0 Z " fill="#0F4787" transform="translate(75,74)"/>
<path d="M0 0 C2.80045623 3.14591933 3.35261589 5.067064 3.1875 9.25 C3.16042969 10.14203125 3.13335937 11.0340625 3.10546875 11.953125 C3.07066406 12.62859375 3.03585938 13.3040625 3 14 C2.67 14 2.34 14 2 14 C1.67 11.03 1.34 8.06 1 5 C0.01 4.67 -0.98 4.34 -2 4 C-1.34 2.68 -0.68 1.36 0 0 Z " fill="#3F699C" transform="translate(76,49)"/>
<path d="M0 0 C0.99 0.33 1.98 0.66 3 1 C2.34 1 1.68 1 1 1 C0.87625 2.299375 0.7525 3.59875 0.625 4.9375 C0.4140625 7.15234375 0.4140625 7.15234375 0 9 C-0.99 9.495 -0.99 9.495 -2 10 C-3.06351675 6.61608307 -3.21442982 5.4195366 -1.5625 2.1875 C-1.046875 1.465625 -0.53125 0.74375 0 0 Z " fill="#879BB0" transform="translate(11,33)"/>
<path d="M0 0 C0.33 0.66 0.66 1.32 1 2 C3.32156597 2.40729228 5.6568787 2.74438677 8 3 C8 3.66 8 4.32 8 5 C6.25 6.125 6.25 6.125 4 7 C1.30066074 6.07451225 0.28813232 5.57626463 -1 3 C-0.67 2.01 -0.34 1.02 0 0 Z " fill="#DCEEF9" transform="translate(64,23)"/>
<path d="M0 0 C0.99 0.33 1.98 0.66 3 1 C3 1.99 3 2.98 3 4 C2.34 4 1.68 4 1 4 C0.67 4.99 0.34 5.98 0 7 C-0.99 6.34 -1.98 5.68 -3 5 C-2 3 -2 3 0 0 Z " fill="#95AABC" transform="translate(25,31)"/>
<path d="M0 0 C4 0 4 0 7 2 C6.34 2 5.68 2 5 2 C5 2.66 5 3.32 5 4 C3.35 4.33 1.7 4.66 0 5 C0 3.35 0 1.7 0 0 Z " fill="#99ADC3" transform="translate(68,104)"/>
<path d="M0 0 C0.33 0 0.66 0 1 0 C1.66 3.96 2.32 7.92 3 12 C2.01 12 1.02 12 0 12 C0 8.04 0 4.08 0 0 Z " fill="#C1DFF6" transform="translate(1,99)"/>
<path d="M0 0 C0.66 0.33 1.32 0.66 2 1 C0.68 3.64 -0.64 6.28 -2 9 C-2.33 9 -2.66 9 -3 9 C-3.1875 5.625 -3.1875 5.625 -3 2 C-2.01 1.34 -1.02 0.68 0 0 Z " fill="#E5F3FC" transform="translate(3,88)"/>
<path d="M0 0 C2 2 2 2 2 4 C-2.95 4 -7.9 4 -13 4 C-13 3.67 -13 3.34 -13 3 C-12.14535156 2.95101562 -11.29070313 2.90203125 -10.41015625 2.8515625 C-9.30542969 2.77679688 -8.20070313 2.70203125 -7.0625 2.625 C-5.40927734 2.52058594 -5.40927734 2.52058594 -3.72265625 2.4140625 C-2.37494141 2.20910156 -2.37494141 2.20910156 -1 2 C-0.67 1.34 -0.34 0.68 0 0 Z " fill="#D7DEE1" transform="translate(65,88)"/>
<path d="M0 0 C0.66 0 1.32 0 2 0 C1.75 2.875 1.75 2.875 1 6 C-1.0625 7.375 -1.0625 7.375 -3 8 C-3.33 7.34 -3.66 6.68 -4 6 C-3.34 6 -2.68 6 -2 6 C-1.34 4.02 -0.68 2.04 0 0 Z " fill="#E8F6FC" transform="translate(94,64)"/>
<path d="M0 0 C0.66 0.33 1.32 0.66 2 1 C2 2.98 2 4.96 2 7 C0.68 6.67 -0.64 6.34 -2 6 C-2 4.35 -2 2.7 -2 1 C-1.34 0.67 -0.68 0.34 0 0 Z " fill="#ADBECB" transform="translate(15,59)"/>
<path d="M0 0 C1.65 0 3.3 0 5 0 C5.33 1.32 5.66 2.64 6 4 C5.01 4.495 5.01 4.495 4 5 C4 4.01 4 3.02 4 2 C3.34 2 2.68 2 2 2 C2 2.99 2 3.98 2 5 C1.34 5 0.68 5 0 5 C0 3.35 0 1.7 0 0 Z " fill="#1D5389" transform="translate(71,45)"/>
<path d="M0 0 C0.66 0.33 1.32 0.66 2 1 C0.25 3.0625 0.25 3.0625 -2 5 C-4.1875 4.9375 -4.1875 4.9375 -6 4 C-6.33 3.01 -6.66 2.02 -7 1 C-5.5459375 1.0309375 -5.5459375 1.0309375 -4.0625 1.0625 C-1.12534105 1.35618499 -1.12534105 1.35618499 0 0 Z " fill="#8D9DB5" transform="translate(73,22)"/>
<path d="M0 0 C1.32 0 2.64 0 4 0 C4 1.98 4 3.96 4 6 C2.68 6 1.36 6 0 6 C0 4.02 0 2.04 0 0 Z " fill="#9EAFC3" transform="translate(80,51)"/>
<path d="M0 0 C0.99 0.66 1.98 1.32 3 2 C2.49396008 4.16874252 2.00016187 5.99967627 1 8 C0.01 7.67 -0.98 7.34 -2 7 C-1.34 6.67 -0.68 6.34 0 6 C0 4.02 0 2.04 0 0 Z " fill="#E7F6FC" transform="translate(93,49)"/>
<path d="M0 0 C0.99 0.33 1.98 0.66 3 1 C2.67 2.32 2.34 3.64 2 5 C-0.31 5 -2.62 5 -5 5 C-4.67 4.34 -4.34 3.68 -4 3 C-1.9375 2.375 -1.9375 2.375 0 2 C0 1.34 0 0.68 0 0 Z " fill="#E5EFF9" transform="translate(10,42)"/>
<path d="M0 0 C1.65 0 3.3 0 5 0 C5.33 1.32 5.66 2.64 6 4 C3.03 3.505 3.03 3.505 0 3 C0 2.01 0 1.02 0 0 Z " fill="#93A8BB" transform="translate(58,105)"/>
<path d="M0 0 C1.485 0.99 1.485 0.99 3 2 C2.6875 3.9375 2.6875 3.9375 2 6 C1.01 6.33 0.02 6.66 -1 7 C-0.67 4.69 -0.34 2.38 0 0 Z " fill="#134680" transform="translate(18,82)"/>
<path d="M0 0 C0.99 0 1.98 0 3 0 C4.75 1.8125 4.75 1.8125 6 4 C5.67 4.99 5.34 5.98 5 7 C3.29115995 5.37660195 1.62553283 3.70680947 0 2 C0 1.34 0 0.68 0 0 Z " fill="#274E85" transform="translate(26,77)"/>
<path d="M0 0 C0 1.98 0 3.96 0 6 C-1.65 6 -3.3 6 -5 6 C-5 5.01 -5 4.02 -5 3 C-4.01 3 -3.02 3 -2 3 C-2.33 2.34 -2.66 1.68 -3 1 C-1 0 -1 0 0 0 Z " fill="#D6EEF7" transform="translate(69,48)"/>
<path d="M0 0 C0.99 0 1.98 0 3 0 C3 1.32 3 2.64 3 4 C1.35 4.33 -0.3 4.66 -2 5 C-1.34 3.35 -0.68 1.7 0 0 Z " fill="#AFBFD1" transform="translate(24,105)"/>
<path d="M0 0 C1.485 0.99 1.485 0.99 3 2 C2.67 3.32 2.34 4.64 2 6 C1.01 6 0.02 6 -1 6 C-0.67 4.02 -0.34 2.04 0 0 Z " fill="#F9FAFA" transform="translate(22,84)"/>
<path d="M0 0 C2.475 0.495 2.475 0.495 5 1 C5 1.99 5 2.98 5 4 C3.35 3.67 1.7 3.34 0 3 C0 2.01 0 1.02 0 0 Z " fill="#DDE2E6" transform="translate(66,83)"/>
<path d="M0 0 C0.99 0.33 1.98 0.66 3 1 C2.75 3.375 2.75 3.375 2 6 C-0.0625 7.3125 -0.0625 7.3125 -2 8 C-1.67 7.01 -1.34 6.02 -1 5 C-0.34 5 0.32 5 1 5 C0.67 3.35 0.34 1.7 0 0 Z " fill="#CBDDE6" transform="translate(28,82)"/>
<path d="M0 0 C1.9375 0.6875 1.9375 0.6875 2.9375 2.6875 C2.0403125 2.3471875 2.0403125 2.3471875 1.125 2 C0.403125 1.896875 -0.31875 1.79375 -1.0625 1.6875 C-2.83440909 3.04194301 -2.83440909 3.04194301 -4.0625 4.6875 C-4.0625 3.3675 -4.0625 2.0475 -4.0625 0.6875 C-2.0625 -0.3125 -2.0625 -0.3125 0 0 Z " fill="#D6EBF7" transform="translate(80.0625,79.3125)"/>
<path d="M0 0 C0.99 0.99 1.98 1.98 3 3 C1.68 4.65 0.36 6.3 -1 8 C-1 7.34 -1 6.68 -1 6 C-1.66 5.67 -2.32 5.34 -3 5 C-2 3 -2 3 0 2 C0 1.34 0 0.68 0 0 Z " fill="#979DB0" transform="translate(20,37)"/>
</svg>
